# Blender v2.80 (sub 75) OBJ File: 'Outhouse.blend'
# www.blender.org
mtllib Outhouse.mtl
o Cube_Cube.002
v -1.000000 -2.395549 1.000000
v -1.000000 2.395549 1.000000
v -1.000000 -2.395549 -1.000000
v -1.000000 2.395549 -1.000000
v 1.000000 -2.395549 1.000000
v 1.000000 2.395549 1.000000
v 1.000000 -2.395549 -1.000000
v 1.000000 2.395549 -1.000000
v 0.995728 2.312242 -0.893170
v 0.995728 -2.312242 -0.893170
v 0.995728 -2.312242 0.893170
v 0.995728 2.312242 0.893170
v -0.815839 2.312242 -0.893170
v -0.815839 -2.312242 -0.893170
v -0.815839 -2.312242 0.893170
v -0.815839 2.312242 0.893170
v 0.089944 -2.312242 -0.893170
v 0.089944 -2.312242 0.893170
v 0.089944 2.312242 0.893170
v 0.089944 2.312242 -0.893170
v -0.815839 -1.409028 0.893170
v -0.815839 -1.409028 -0.893170
v 0.089944 -1.409028 -0.893170
v 0.089944 -1.409028 0.893170
v -0.547289 -1.407962 0.185257
v -0.547289 -1.407962 -0.185257
v -0.178605 -1.407962 -0.185257
v -0.178605 -1.407962 0.185257
v -0.718721 -1.469170 0.773564
v -0.718721 -1.469170 -0.773564
v -0.007174 -1.469170 -0.773564
v -0.007174 -1.469170 0.773564
v -0.718721 -2.253978 0.773564
v -0.718721 -2.253978 -0.773564
v -0.007174 -2.253978 -0.773564
v -0.007174 -2.253978 0.773564
v -0.759811 -1.516593 0.827931
v -0.759811 -1.516593 -0.827931
v 0.033917 -1.516593 -0.827931
v 0.033917 -1.516593 0.827931
v -0.547289 -1.477509 0.185257
v -0.547289 -1.477509 -0.185257
v -0.178605 -1.477509 -0.185257
v -0.178605 -1.477509 0.185257
v 1.120848 2.395549 0.995167
v 1.120848 -2.395549 0.995167
v 1.116576 2.312242 0.888337
v 1.116576 -2.312242 0.888337
v 1.748296 2.312242 -1.026481
v 1.748296 -2.312242 -1.026481
v 1.865410 2.312242 -0.996282
v 1.865410 -2.312242 -0.996282
v 1.273278 1.738344 0.202256
v 1.273278 1.141101 0.202256
v 1.357912 1.712812 0.221396
v 1.357912 1.115569 0.221396
v 1.493382 1.738344 -0.359186
v 1.493382 1.141101 -0.359186
v 1.576923 1.712812 -0.329800
v 1.576923 1.115569 -0.329800
v 1.304428 1.658677 0.135085
v 1.304428 1.220767 0.135085
v 1.330343 1.658677 0.134048
v 1.330343 1.220767 0.134048
v 1.465812 1.658677 -0.276575
v 1.465812 1.220767 -0.276575
v 1.490927 1.658677 -0.270099
v 1.490927 1.220767 -0.270099
vt 0.375000 0.000000
vt 0.625000 0.000000
vt 0.625000 0.250000
vt 0.375000 0.250000
vt 0.625000 0.500000
vt 0.375000 0.500000
vt 0.625000 0.750000
vt 0.375000 0.750000
vt 0.375000 0.750000
vt 0.625000 0.750000
vt 0.625000 1.000000
vt 0.375000 1.000000
vt 0.125000 0.500000
vt 0.125000 0.750000
vt 0.875000 0.500000
vt 0.875000 0.750000
vt 0.375000 0.500000
vt 0.375000 0.500000
vt 0.375000 0.500000
vt 0.375000 0.500000
vt 0.375000 0.500000
vt 0.375000 0.750000
vt 0.625000 0.750000
vt 0.625000 0.500000
vt 0.625000 0.500000
vt 0.625000 0.750000
vt 0.375000 0.750000
vt 0.625000 0.500000
vt 0.625000 0.750000
vt 0.375000 0.750000
vt 0.375000 0.750000
vt 0.375000 0.750000
vt 0.375000 0.750000
vt 0.375000 0.750000
vt 0.375000 0.750000
vt 0.375000 0.750000
vt 0.375000 0.500000
vt 0.375000 0.500000
vt 0.375000 0.500000
vt 0.375000 0.500000
vt 0.375000 0.750000
vt 0.375000 0.500000
vt 0.375000 0.500000
vt 0.375000 0.750000
vt 0.375000 0.500000
vt 0.375000 0.750000
vt 0.375000 0.500000
vt 0.375000 0.750000
vt 0.375000 0.500000
vt 0.375000 0.750000
vt 0.375000 0.750000
vt 0.375000 0.500000
vt 0.375000 0.750000
vt 0.625000 0.750000
vt 0.625000 0.750000
vt 0.625000 0.750000
vt 0.375000 0.750000
vt 0.375000 0.750000
vt 0.625000 0.750000
vt 0.625000 0.750000
vt 0.375000 0.750000
vt 0.375000 0.750000
vt 0.625000 0.750000
vt 0.625000 0.750000
vt 0.625000 0.750000
vt 0.625000 0.750000
vt 0.375000 0.750000
vt 0.375000 0.750000
vt 0.375000 0.750000
vt 0.375000 0.750000
vt 0.625000 0.750000
vt 0.625000 0.750000
vt 0.375000 0.750000
vt 0.375000 0.750000
vn -1.0000 0.0000 0.0000
vn 0.0000 0.0000 -1.0000
vn 0.0400 0.0000 0.9992
vn 0.0000 0.0000 1.0000
vn 0.0000 -1.0000 0.0000
vn 0.0000 1.0000 0.0000
vn 0.9987 0.0512 0.0000
vn 0.9987 -0.0512 0.0000
vn 0.9992 0.0000 0.0400
vn 1.0000 0.0000 0.0000
vn 0.0000 1.0000 0.0015
vn 0.0000 -0.9946 -0.1035
vn -0.0040 1.0000 0.0000
vn 0.0040 1.0000 0.0000
vn 0.0000 1.0000 -0.0015
vn 0.3362 -0.9418 0.0000
vn -0.3362 -0.9418 0.0000
vn 0.0000 -0.9946 0.1035
vn -0.7558 -0.6548 0.0000
vn 0.0000 0.7536 -0.6574
vn 0.0000 0.7536 0.6574
vn -0.7558 0.6548 0.0000
vn 0.9992 0.0000 -0.0400
vn -0.0246 -0.7888 -0.6141
vn -0.0246 0.7888 -0.6141
vn 0.2497 0.0000 -0.9683
vn -0.9310 -0.0108 -0.3650
vn -0.9310 0.0018 -0.3650
vn 0.6348 -0.7303 0.2522
vn 0.8142 0.4820 0.3235
vn 0.9177 0.0000 0.3972
vn 0.9293 0.0064 0.3693
vn 0.9287 -0.0367 0.3690
vn 0.9403 0.0000 0.3403
vn -0.9279 0.0000 -0.3728
vn -0.9342 0.0000 -0.3569
vn -0.2497 0.0000 0.9683
vn -0.9486 0.0000 -0.3166
vn -0.9072 0.0000 -0.4207
vn -0.9295 0.0562 -0.3644
vn -0.9295 -0.0562 -0.3644
vn 0.5703 0.0000 0.8215
vn 0.9536 0.0000 -0.3010
vn -0.0400 0.0000 -0.9992
usemtl None
s off
f 1/1/1 2/2/1 4/3/1 3/4/1
f 3/4/2 4/3/2 8/5/2 7/6/2
f 6/7/3 5/8/3 46/9/3 45/10/3
f 5/8/4 6/7/4 2/11/4 1/12/4
f 3/13/5 7/6/5 5/8/5 1/14/5
f 8/5/6 4/15/6 2/16/6 6/7/6
f 17/17/2 14/18/2 22/19/2 23/20/2
f 5/8/7 7/6/7 10/21/7 11/22/7
f 8/5/8 6/7/8 12/23/8 9/24/8
f 7/6/9 8/5/9 9/24/9 10/21/9
f 14/18/10 13/25/10 16/26/10 15/27/10
f 20/28/5 19/29/5 16/26/5 13/25/5
f 17/17/4 20/28/4 13/25/4 14/18/4
f 19/29/2 18/30/2 15/27/2 16/26/2
f 12/23/2 11/22/2 18/30/2 19/29/2
f 10/21/4 9/24/4 20/28/4 17/17/4
f 9/24/5 12/23/5 19/29/5 20/28/5
f 11/22/6 10/21/6 17/17/6 18/30/6
f 21/31/11 24/32/11 28/33/11 25/34/11
f 18/30/10 17/17/10 23/20/10 24/32/10
f 15/27/4 18/30/4 24/32/4 21/31/4
f 14/18/1 15/27/1 21/31/1 22/19/1
f 25/34/12 28/33/12 32/35/12 29/36/12
f 22/19/13 21/31/13 25/34/13 26/37/13
f 24/32/14 23/20/14 27/38/14 28/33/14
f 23/20/15 22/19/15 26/37/15 27/38/15
f 32/35/1 31/39/1 35/40/1 36/41/1
f 26/37/16 25/34/16 29/36/16 30/42/16
f 28/33/17 27/38/17 31/39/17 32/35/17
f 27/38/18 26/37/18 30/42/18 31/39/18
f 36/41/6 35/40/6 34/43/6 33/44/6
f 31/39/4 30/42/4 34/43/4 35/40/4
f 29/36/2 32/35/2 36/41/2 33/44/2
f 30/42/10 29/36/10 33/44/10 34/43/10
f 32/35/19 31/39/19 39/45/19 40/46/19
f 30/42/20 31/39/20 39/45/20 38/47/20
f 32/35/21 29/36/21 37/48/21 40/46/21
f 29/36/22 30/42/22 38/47/22 37/48/22
f 25/34/1 26/37/1 42/49/1 41/50/1
f 27/38/10 28/33/10 44/51/10 43/52/10
f 26/37/2 27/38/2 43/52/2 42/49/2
f 28/33/4 25/34/4 41/50/4 44/51/4
f 45/10/23 46/9/23 48/53/23 47/54/23
f 5/8/24 11/22/24 48/53/24 46/9/24
f 12/23/25 6/7/25 45/10/25 47/54/25
f 12/23/6 47/54/6 51/55/6 49/56/6
f 50/57/26 49/56/26 51/55/26 52/58/26
f 12/23/27 49/56/27 57/59/27 53/60/27
f 50/57/28 11/22/28 54/61/28 58/62/28
f 48/53/5 11/22/5 50/57/5 52/58/5
f 59/63/29 55/64/29 63/65/29 67/66/29
f 56/67/30 60/68/30 68/69/30 64/70/30
f 52/58/31 51/55/31 59/63/31 60/68/31
f 48/53/32 52/58/32 60/68/32 56/67/32
f 51/55/33 47/54/33 55/64/33 59/63/33
f 47/54/34 48/53/34 56/67/34 55/64/34
f 11/22/35 12/23/35 53/60/35 54/61/35
f 49/56/36 50/57/36 58/62/36 57/59/36
f 63/65/5 61/71/5 65/72/5 67/66/5
f 66/73/37 68/69/37 67/66/37 65/72/37
f 57/59/38 58/62/38 66/73/38 65/72/38
f 54/61/39 53/60/39 61/71/39 62/74/39
f 58/62/40 54/61/40 62/74/40 66/73/40
f 53/60/41 57/59/41 65/72/41 61/71/41
f 60/68/42 59/63/42 67/66/42 68/69/42
f 55/64/43 56/67/43 64/70/43 63/65/43
f 62/74/44 61/71/44 63/65/44 64/70/44
f 64/70/6 68/69/6 66/73/6 62/74/6
