# Blender v2.81 (sub 16) OBJ File: 'podium-lowpoly_WIP.blend'
# www.blender.org
mtllib podium-lowpoly_WIP.mtl
o Poduim_Cube.001
v 0.743868 0.325611 -0.970932
v 0.769365 0.548055 -1.131311
v 0.743868 0.325611 0.970932
v 0.769365 0.548055 1.131311
v -0.653921 -0.481404 -0.970932
v -0.859312 -0.392262 -1.131311
v -0.653921 -0.481404 0.970932
v -0.859312 -0.392262 1.131311
v 0.821052 0.577897 -1.203116
v 0.821052 0.577897 1.203116
v -0.910999 -0.422103 1.203116
v -0.910999 -0.422103 -1.203116
v 0.763258 0.516884 -1.106196
v 0.763258 0.516884 1.106196
v -0.829264 -0.402558 1.106196
v -0.829264 -0.402558 -1.106196
v 0.781336 0.527321 -1.131311
v 0.781336 0.527321 1.131311
v -0.847342 -0.412996 1.131311
v -0.847342 -0.412996 -1.131311
v 0.776064 0.494704 -1.106196
v 0.776064 0.494704 1.106196
v -0.816458 -0.424739 1.106196
v -0.816458 -0.424739 -1.106196
v 0.910999 0.422103 1.203116
v 0.910999 0.422103 -1.203116
v -0.821052 -0.577897 1.203116
v -0.821052 -0.577897 -1.203116
v 0.448642 0.059642 0.560792
v 0.448642 0.059642 -0.560792
v -0.358695 -0.406474 0.560792
v -0.358695 -0.406474 -0.560792
v 0.507672 -3.226413 0.556680
v 0.507672 -3.226413 -0.556680
v -0.417725 -3.226413 0.556680
v -0.417725 -3.226413 -0.556680
v 0.675915 -3.304210 0.759096
v 0.675915 -3.304210 -0.759096
v -0.585970 -3.304210 0.759096
v -0.585970 -3.304210 -0.759096
v 0.804581 -3.378791 0.913896
v 0.804581 -3.378791 -0.913896
v -0.714635 -3.378791 0.913896
v -0.714635 -3.378791 -0.913896
v -0.366468 -0.777826 -0.560250
v -0.366468 -0.777826 0.560250
v 0.456415 -0.373091 0.560250
v 0.456415 -0.373091 -0.560250
v 0.811785 -3.419556 0.922563
v 0.811785 -3.419556 -0.922563
v -0.721839 -3.419556 0.922563
v -0.721839 -3.419556 -0.922563
v 0.865523 -3.534429 0.987216
v 0.865523 -3.534429 -0.987216
v -0.775577 -3.534428 0.987216
v -0.775577 -3.534428 -0.987216
v -0.607875 -3.341251 -0.785451
v -0.607875 -3.341251 0.785451
v 0.697821 -3.341251 0.785451
v 0.697821 -3.341251 -0.785451
vt 0.375000 0.000000
vt 0.625000 0.000000
vt 0.625000 0.250000
vt 0.375000 0.250000
vt 0.625000 0.500000
vt 0.375000 0.500000
vt 0.625000 0.750000
vt 0.375000 0.750000
vt 0.625000 1.000000
vt 0.375000 1.000000
vt 0.350877 0.524123
vt 0.350877 0.725877
vt 0.350877 0.725877
vt 0.350877 0.524123
vt 0.632460 0.507460
vt 0.867540 0.507460
vt 0.867540 0.507460
vt 0.632460 0.507460
vt 0.867540 0.742540
vt 0.875000 0.500000
vt 0.875000 0.750000
vt 0.632460 0.742540
vt 0.864930 0.739930
vt 0.635070 0.739930
vt 0.635070 0.739930
vt 0.864930 0.739930
vt 0.632460 0.742540
vt 0.867540 0.742540
vt 0.864930 0.510070
vt 0.635070 0.510070
vt 0.635070 0.510070
vt 0.864930 0.510070
vt 0.149123 0.524123
vt 0.149123 0.725877
vt 0.125000 0.750000
vt 0.125000 0.500000
vt 0.350877 0.524123
vt 0.350877 0.725877
vt 0.350877 0.725877
vt 0.350877 0.524123
vt 0.149123 0.524123
vt 0.149123 0.725877
vt 0.149123 0.725877
vt 0.149123 0.725877
vt 0.350877 0.725877
vt 0.149123 0.725877
vt 0.149123 0.524123
vt 0.149123 0.524123
vt 0.350877 0.524123
vt 0.350877 0.725877
vt 0.350877 0.725877
vt 0.350877 0.524123
vt 0.350877 0.524123
vt 0.149123 0.524123
vt 0.149123 0.725877
vt 0.149123 0.725877
vt 0.350877 0.725877
vt 0.149123 0.725877
vt 0.149123 0.524123
vt 0.149123 0.524123
vt 0.149123 0.524123
vt 0.149123 0.524123
vt 0.149123 0.725877
vt 0.350877 0.524123
vt 0.350877 0.524123
vt 0.350877 0.725877
vn 0.8660 0.5000 0.0000
vn 0.0000 0.0000 1.0000
vn -0.8660 -0.5000 0.0000
vn -0.0000 0.0000 -1.0000
vn 0.2460 -0.9693 0.0000
vn -0.5000 0.8660 0.0000
vn 0.5000 -0.8660 0.0000
vn -0.9998 0.0209 0.0000
vn 0.6693 -0.7430 0.0000
vn 0.4901 -0.8489 -0.1977
vn 0.4901 -0.8489 0.1977
vn -0.0000 0.9334 -0.3588
vn 0.9998 0.0180 0.0000
vn 0.0003 -0.0013 -1.0000
vn 0.0003 -0.0013 1.0000
vn -0.3317 0.9434 0.0000
vn -0.0000 0.9334 0.3588
vn -0.4197 0.9077 0.0000
vn 0.4197 0.9077 0.0000
vn 0.0000 0.2080 -0.9781
vn 0.3317 0.9434 0.0000
vn -0.0000 0.9598 -0.2805
vn -0.0000 0.9598 0.2805
vn 0.0007 -0.0013 1.0000
vn 0.0007 -0.0013 -1.0000
vn 0.9058 0.4237 0.0000
vn 0.0000 0.2080 0.9781
vn -0.9847 0.1740 0.0000
vn 0.9847 0.1740 0.0000
vn -0.0000 -1.0000 0.0000
vn 0.0000 0.4905 -0.8715
vn 0.0000 0.4905 0.8715
vn -0.9058 0.4237 0.0000
vn -0.0000 0.5797 0.8148
vn -0.0000 0.5797 -0.8148
vn 0.8607 0.5090 0.0000
vn -0.8607 0.5090 0.0000
usemtl None
s off
f 26/1/1 9/2/1 10/3/1 25/4/1
f 25/4/2 10/3/2 11/5/2 27/6/2
f 27/6/3 11/5/3 12/7/3 28/8/3
f 28/8/4 12/7/4 9/9/4 26/10/4
f 7/11/5 5/12/5 32/13/5 31/14/5
f 8/15/4 4/16/4 18/17/4 19/18/4
f 2/19/6 4/16/6 10/20/6 9/21/6
f 4/16/6 8/15/6 11/5/6 10/20/6
f 8/15/6 6/22/6 12/7/6 11/5/6
f 6/22/6 2/19/6 9/21/6 12/7/6
f 13/23/2 16/24/2 24/25/2 21/26/2
f 6/22/1 8/15/1 19/18/1 20/27/1
f 4/16/3 2/19/3 17/28/3 18/17/3
f 2/19/2 6/22/2 20/27/2 17/28/2
f 13/23/6 14/29/6 18/17/6 17/28/6
f 14/29/6 15/30/6 19/18/6 18/17/6
f 15/30/6 16/24/6 20/27/6 19/18/6
f 16/24/6 13/23/6 17/28/6 20/27/6
f 23/31/6 22/32/6 21/26/6 24/25/6
f 15/30/4 14/29/4 22/32/4 23/31/4
f 16/24/1 15/30/1 23/31/1 24/25/1
f 14/29/3 13/23/3 21/26/3 22/32/3
f 3/33/7 1/34/7 26/35/7 25/36/7
f 7/11/7 3/33/7 25/36/7 27/6/7
f 5/12/7 7/11/7 27/6/7 28/8/7
f 1/34/7 5/12/7 28/8/7 26/35/7
f 46/37/8 45/38/8 36/39/8 35/40/8
f 1/34/9 3/33/9 29/41/9 30/42/9
f 5/12/10 1/34/10 30/42/10 32/13/10
f 3/33/11 7/11/11 31/14/11 29/41/11
f 36/39/12 34/43/12 38/44/12 40/45/12
f 48/46/13 47/47/13 33/48/13 34/43/13
f 45/38/14 48/46/14 34/43/14 36/39/14
f 47/47/15 46/37/15 35/40/15 33/48/15
f 58/49/16 57/50/16 44/51/16 43/52/16
f 33/48/17 35/40/17 39/53/17 37/54/17
f 35/40/18 36/39/18 40/45/18 39/53/18
f 34/43/19 33/48/19 37/54/19 38/44/19
f 44/51/20 42/55/20 50/56/20 52/57/20
f 60/58/21 59/59/21 41/60/21 42/55/21
f 57/50/22 60/58/22 42/55/22 44/51/22
f 59/59/23 58/49/23 43/52/23 41/60/23
f 29/41/24 31/14/24 46/37/24 47/47/24
f 32/13/25 30/42/25 48/46/25 45/38/25
f 30/42/13 29/41/13 47/47/13 48/46/13
f 31/14/8 32/13/8 45/38/8 46/37/8
f 50/56/26 49/61/26 53/62/26 54/63/26
f 41/60/27 43/52/27 51/64/27 49/61/27
f 43/52/28 44/51/28 52/57/28 51/64/28
f 42/55/29 41/60/29 49/61/29 50/56/29
f 53/62/30 55/65/30 56/66/30 54/63/30
f 52/57/31 50/56/31 54/63/31 56/66/31
f 49/61/32 51/64/32 55/65/32 53/62/32
f 51/64/33 52/57/33 56/66/33 55/65/33
f 37/54/34 39/53/34 58/49/34 59/59/34
f 40/45/35 38/44/35 60/58/35 57/50/35
f 38/44/36 37/54/36 59/59/36 60/58/36
f 39/53/37 40/45/37 57/50/37 58/49/37
