# Blender v2.81 (sub 16) OBJ File: 'squarePaintFrame-lowpoly_WIP.blend'
# www.blender.org
mtllib squarePaintFrame-lowpoly_WIP.mtl
o SquareFrame_Cube.001
v 0.024746 -1.216233 0.884664
v 0.024746 1.216233 0.884664
v 0.024746 -1.216233 -0.884664
v 0.024746 1.216233 -0.884664
v -0.112890 -1.374796 1.000000
v -0.112890 1.374796 1.000000
v -0.112890 -1.374796 -1.000000
v -0.112890 1.374796 -1.000000
v 0.112890 -1.374796 -1.000000
v 0.112890 -1.374796 1.000000
v 0.112890 1.374796 1.000000
v 0.112890 1.374796 -1.000000
v -0.036358 -1.146835 -0.834185
v -0.036358 -1.146835 0.834185
v -0.036358 1.146835 0.834185
v -0.036358 1.146835 -0.834185
v -0.013650 -1.216233 -0.884664
v -0.013650 -1.216233 0.884664
v -0.013650 1.216233 0.884664
v -0.013650 1.216233 -0.884664
v -0.082163 -0.851678 -0.619494
v -0.082163 -0.851678 0.619494
v -0.082163 0.851678 0.619494
v -0.082163 0.851678 -0.619494
v -0.082163 -1.146835 -0.834185
v -0.082163 -1.146835 0.834185
v -0.082163 1.146835 0.834185
v -0.082163 1.146835 -0.834185
v -0.108942 -0.851678 -0.619494
v -0.108942 -0.851678 0.619494
v -0.108942 0.851678 0.619494
v -0.108942 0.851678 -0.619494
vt 0.610583 0.014417
vt 0.610583 0.014417
vt 0.610583 0.235583
vt 0.610583 0.235583
vt 0.375000 0.250000
vt 0.375000 0.500000
vt 0.625000 0.500000
vt 0.625000 0.250000
vt 0.375000 0.750000
vt 0.625000 0.750000
vt 0.375000 1.000000
vt 0.625000 1.000000
vt 0.125000 0.500000
vt 0.125000 0.750000
vt 0.875000 0.750000
vt 0.875000 0.500000
vt 0.389417 0.014417
vt 0.375000 0.000000
vt 0.389417 0.235583
vt 0.625000 0.000000
vt 0.395727 0.020727
vt 0.395727 0.020727
vt 0.604273 0.020727
vt 0.604273 0.020727
vt 0.389417 0.235583
vt 0.389417 0.014417
vt 0.395727 0.229273
vt 0.604273 0.229273
vt 0.577437 0.202437
vt 0.577437 0.202437
vt 0.422563 0.202437
vt 0.422563 0.202437
vt 0.604273 0.229273
vt 0.395727 0.229273
vt 0.422563 0.047563
vt 0.577437 0.047563
vt 0.422563 0.047563
vt 0.577437 0.047563
vn 0.0000 -1.0000 0.0000
vn 0.0000 0.0000 -1.0000
vn -1.0000 0.0000 0.0000
vn 0.0000 0.0000 1.0000
vn 0.0000 1.0000 0.0000
vn 0.8740 0.4859 0.0000
vn 0.7945 0.0000 -0.6072
vn 0.8740 -0.4859 0.0000
vn 0.7945 0.0000 0.6072
vn 0.9504 0.3110 0.0000
vn 0.9120 0.0000 -0.4103
vn 0.9504 -0.3110 0.0000
vn 0.9120 0.0000 0.4103
vn 1.0000 -0.0000 0.0000
usemtl None
s off
f 2/1/1 19/2/1 20/3/1 4/4/1
f 9/5/2 7/6/2 8/7/2 12/8/2
f 7/6/3 5/9/3 6/10/3 8/7/3
f 5/9/4 10/11/4 11/12/4 6/10/4
f 9/13/1 10/14/1 5/9/1 7/6/1
f 8/7/5 6/10/5 11/15/5 12/16/5
f 1/17/6 10/18/6 9/5/6 3/19/6
f 2/1/7 11/20/7 10/18/7 1/17/7
f 4/4/8 12/8/8 11/20/8 2/1/8
f 3/19/9 9/5/9 12/8/9 4/4/9
f 14/21/2 26/22/2 27/23/2 15/24/2
f 3/19/5 17/25/5 18/26/5 1/17/5
f 4/4/4 20/3/4 17/25/4 3/19/4
f 1/17/2 18/26/2 19/2/2 2/1/2
f 14/21/10 18/26/10 17/25/10 13/27/10
f 15/24/11 19/2/11 18/26/11 14/21/11
f 16/28/12 20/3/12 19/2/12 15/24/12
f 13/27/13 17/25/13 20/3/13 16/28/13
f 24/29/4 32/30/4 29/31/4 21/32/4
f 15/24/1 27/23/1 28/33/1 16/28/1
f 13/27/5 25/34/5 26/22/5 14/21/5
f 16/28/4 28/33/4 25/34/4 13/27/4
f 22/35/14 26/22/14 25/34/14 21/32/14
f 23/36/14 27/23/14 26/22/14 22/35/14
f 24/29/14 28/33/14 27/23/14 23/36/14
f 21/32/14 25/34/14 28/33/14 24/29/14
f 30/37/14 29/31/14 32/30/14 31/38/14
f 22/35/2 30/37/2 31/38/2 23/36/2
f 23/36/1 31/38/1 32/30/1 24/29/1
f 21/32/5 29/31/5 30/37/5 22/35/5
