# Blender v2.81 (sub 16) OBJ File: 'Large_StepStone.blend'
# www.blender.org
mtllib Large_StepStone.mtl
o Cube_Cube.001
v -5.246150 -0.378254 4.801011
v -4.866622 0.545025 4.457163
v -5.054520 -0.378254 -4.340421
v -4.689164 0.545025 -4.008224
v 4.716980 -0.378254 4.499540
v 4.359695 0.545025 4.177988
v 4.655196 -0.378254 -5.109913
v 4.302482 0.545025 -4.720810
v 0.009120 -0.378254 -6.055800
v 0.000000 0.545025 -5.596746
v 0.009120 -0.378254 8.220984
v 0.000000 0.545025 7.624216
v 2.862592 0.545025 -5.596746
v 2.337039 -0.378254 5.496931
v 3.100317 -0.378254 -6.055800
v 2.155761 0.545025 5.101617
v -3.012731 -0.378254 -4.991250
v -2.798373 0.545025 5.596746
v -2.798373 0.545025 -4.610922
v -3.012731 -0.378254 6.031600
v -5.423740 -0.378254 -0.012100
v -5.031080 0.545025 0.000000
v 5.347731 -0.378254 -0.012100
v 4.943801 0.545025 0.000000
v 0.000000 0.545025 0.000000
v 0.000000 -0.378254 0.000000
v 2.862592 0.545025 0.000000
v 2.862592 -0.378254 0.000000
v -2.798373 -0.378254 0.000000
v -2.798373 0.545025 0.000000
v -5.596746 0.545025 -2.798373
v 5.347731 -0.378254 -3.033950
v -6.034581 -0.378254 -3.033950
v 4.943801 0.545025 -2.798373
v 0.000000 0.545025 -2.798373
v 0.000000 -0.378254 -2.798373
v 2.862592 0.545025 -2.798373
v 2.862592 -0.378254 -2.798373
v -2.798373 -0.378254 -2.798373
v -2.798373 0.545025 -2.798373
v -6.034581 -0.378254 3.009750
v 5.981806 0.545025 2.798373
v 0.000000 0.545025 2.798373
v 0.000000 -0.378254 2.798373
v 2.862592 0.545025 2.798373
v 2.862592 -0.378254 2.798373
v -2.798373 -0.378254 2.798373
v -2.798373 0.545025 2.798373
v -5.596746 0.545025 2.798373
v 6.468631 -0.378254 3.009750
v -4.976964 0.083386 4.557131
v -4.795386 0.083386 -4.104805
v 4.405028 0.083386 -4.833936
v 4.463571 0.083386 4.271474
v 0.002651 0.083386 7.797717
v 0.002651 0.083386 -5.730209
v 2.208465 0.083386 5.216549
v 2.931707 0.083386 -5.730209
v -2.860694 0.083386 -4.721497
v -2.860694 0.083386 5.723173
v 5.061238 0.083386 -0.003518
v -5.223947 0.079775 -0.005943
v 5.061238 0.083386 -2.866864
v -5.724040 0.083386 -2.866864
v -5.724040 0.083386 2.859828
v 6.123343 0.083386 2.859828
v -4.940698 0.314431 4.528883
v -4.760290 0.314431 -4.077217
v 4.380815 0.314431 -4.801647
v 4.438980 0.314431 4.245067
v 0.006817 0.314431 7.748579
v 0.006817 0.314431 -5.692142
v 2.198411 0.314431 5.184050
v 2.916991 0.314431 -5.692142
v -2.838070 0.314431 -4.689932
v -2.838070 0.314431 5.687409
v 5.032794 0.314431 -0.002367
v -5.107889 0.314431 -0.002367
v 5.032794 0.314431 -2.847255
v -5.682958 0.314431 -2.847255
v -5.682958 0.314431 2.842521
v 6.088053 0.314431 2.842521
v -4.934544 -0.147434 -4.231333
v 4.539371 -0.147434 -4.982138
v 4.599654 -0.147434 4.393949
v 0.006125 -0.147434 8.025016
v 0.006125 -0.147434 -5.905056
v 2.277510 -0.147434 5.367117
v 3.022253 -0.147434 -5.905056
v -2.942339 -0.147434 -4.866357
v -2.942339 -0.147434 5.888802
v 5.215088 -0.147434 -0.008127
v -5.294798 -0.147434 -0.008127
v 5.215088 -0.147434 -2.956591
v -5.890804 -0.147434 -2.956591
v -5.890804 -0.147434 2.940338
v 6.308767 -0.147434 2.940338
v -5.121520 -0.147434 4.688097
v -5.368956 -0.378254 4.912272
v -5.172741 -0.378254 -4.447912
v 4.832589 -0.378254 4.603588
v 4.769327 -0.378254 -5.235818
v 0.012071 -0.378254 -6.204341
v 0.012071 -0.378254 8.414084
v 2.395697 -0.378254 5.624846
v 3.177240 -0.378254 -6.204341
v -3.082092 -0.378254 -5.114315
v -3.082092 -0.378254 6.172310
v -5.550797 -0.378254 -0.016015
v 5.478435 -0.378254 -0.016015
v 5.478435 -0.378254 -3.110178
v -6.176255 -0.378254 -3.110178
v -6.176255 -0.378254 3.078147
v 6.626157 -0.378254 3.078147
vt 0.562500 0.187500
vt 0.625000 0.187500
vt 0.625000 0.250000
vt 0.562500 0.250000
vt 0.562500 0.438934
vt 0.625000 0.438934
vt 0.625000 0.500000
vt 0.562500 0.500000
vt 0.562500 0.687500
vt 0.625000 0.687500
vt 0.625000 0.750000
vt 0.562500 0.750000
vt 0.562500 0.937500
vt 0.625000 0.937500
vt 0.625000 1.000000
vt 0.562500 1.000000
vt 0.313934 0.687500
vt 0.375000 0.687500
vt 0.375000 0.750000
vt 0.313934 0.750000
vt 0.812500 0.687500
vt 0.875000 0.687500
vt 0.875000 0.750000
vt 0.812500 0.750000
vt 0.686066 0.687500
vt 0.750000 0.687500
vt 0.750000 0.750000
vt 0.686066 0.750000
vt 0.187500 0.687500
vt 0.250000 0.687500
vt 0.250000 0.750000
vt 0.187500 0.750000
vt 0.562500 0.811066
vt 0.625000 0.811066
vt 0.625000 0.875000
vt 0.562500 0.875000
vt 0.562500 0.312500
vt 0.625000 0.312500
vt 0.625000 0.375000
vt 0.562500 0.375000
vt 0.125000 0.687500
vt 0.125000 0.750000
vt 0.750000 0.562500
vt 0.812500 0.562500
vt 0.812500 0.625000
vt 0.750000 0.625000
vt 0.125000 0.562500
vt 0.187500 0.562500
vt 0.187500 0.625000
vt 0.125000 0.625000
vt 0.250000 0.562500
vt 0.313934 0.562500
vt 0.313934 0.625000
vt 0.250000 0.625000
vt 0.625000 0.562500
vt 0.686066 0.562500
vt 0.686066 0.625000
vt 0.625000 0.625000
vt 0.875000 0.562500
vt 0.875000 0.625000
vt 0.375000 0.562500
vt 0.375000 0.625000
vt 0.562500 0.562500
vt 0.562500 0.625000
vt 0.562500 0.062500
vt 0.625000 0.062500
vt 0.625000 0.125000
vt 0.562500 0.125000
vt 0.313934 0.500000
vt 0.375000 0.500000
vt 0.812500 0.500000
vt 0.875000 0.500000
vt 0.686066 0.500000
vt 0.750000 0.500000
vt 0.187500 0.500000
vt 0.250000 0.500000
vt 0.125000 0.500000
vt 0.562500 0.000000
vt 0.625000 0.000000
vt 0.437500 0.625000
vt 0.500000 0.625000
vt 0.500000 0.687500
vt 0.437500 0.687500
vt 0.437500 0.000000
vt 0.500000 0.000000
vt 0.500000 0.062500
vt 0.437500 0.062500
vt 0.437500 0.125000
vt 0.500000 0.125000
vt 0.500000 0.187500
vt 0.437500 0.187500
vt 0.437500 0.500000
vt 0.500000 0.500000
vt 0.500000 0.562500
vt 0.437500 0.562500
vt 0.437500 0.875000
vt 0.500000 0.875000
vt 0.500000 0.937500
vt 0.437500 0.937500
vt 0.437500 0.250000
vt 0.500000 0.250000
vt 0.500000 0.312500
vt 0.437500 0.312500
vt 0.437500 0.375000
vt 0.500000 0.375000
vt 0.500000 0.438934
vt 0.437500 0.438934
vt 0.437500 0.750000
vt 0.500000 0.750000
vt 0.500000 0.811066
vt 0.437500 0.811066
vt 0.500000 1.000000
vt 0.437500 1.000000
vt 0.375000 0.187500
vt 0.375000 0.250000
vt 0.375000 0.438934
vt 0.375000 0.937500
vt 0.375000 1.000000
vt 0.375000 0.811066
vt 0.375000 0.875000
vt 0.375000 0.312500
vt 0.375000 0.375000
vt 0.375000 0.062500
vt 0.375000 0.125000
vt 0.375000 0.000000
vt 0.375000 0.562500
vt 0.375000 0.500000
vt 0.313934 0.500000
vt 0.125000 0.687500
vt 0.125000 0.750000
vt 0.375000 0.687500
vt 0.375000 0.625000
vt 0.187500 0.750000
vt 0.125000 0.625000
vt 0.313934 0.750000
vt 0.375000 0.750000
vt 0.187500 0.500000
vt 0.125000 0.500000
vt 0.250000 0.500000
vt 0.125000 0.562500
vt 0.250000 0.750000
vn -0.7359 0.3921 -0.5520
vn 0.4693 0.4298 -0.7714
vn 0.5921 0.4061 0.6961
vn -0.4437 0.3930 0.8054
vn 0.0000 -1.0000 -0.0000
vn 0.0000 1.0000 0.0000
vn 0.7123 0.3494 0.6087
vn -0.3106 0.3555 -0.8816
vn 0.3587 0.3723 0.8560
vn 0.0000 0.3823 -0.9240
vn -0.2840 0.3542 -0.8910
vn -0.5411 0.3868 0.7468
vn 0.9329 0.3600 0.0000
vn -0.9312 0.3121 -0.1882
vn 0.8704 0.3975 -0.2904
vn -0.9323 0.3086 0.1885
vn -0.8441 0.3867 0.3715
vn 0.8806 0.3432 -0.3267
vn 0.7926 0.5342 -0.2940
vn -0.7141 0.6255 0.3143
vn -0.8884 0.4272 0.1679
vn 0.7570 0.6027 -0.2525
vn -0.8865 0.4313 -0.1674
vn 0.8321 0.5546 0.0000
vn -0.4607 0.6192 0.6359
vn -0.2482 0.5764 -0.7786
vn 0.0000 0.6038 -0.7971
vn 0.3141 0.5828 0.7494
vn -0.2710 0.5786 -0.7693
vn 0.6371 0.5457 0.5444
vn -0.3770 0.6243 0.6842
vn 0.5093 0.6180 0.5989
vn 0.3958 0.6481 -0.6506
vn -0.6212 0.6300 -0.4660
vn 0.9312 0.1164 -0.3454
vn -0.8987 0.1894 0.3956
vn -0.9353 0.3068 0.1764
vn 0.9390 0.1422 -0.3132
vn -0.9343 0.3101 -0.1761
vn 0.9925 0.1222 0.0000
vn -0.5771 0.1798 0.7966
vn -0.2999 0.1579 -0.9408
vn 0.0000 0.1626 -0.9867
vn 0.3824 0.1450 0.9125
vn -0.3280 0.1593 -0.9311
vn 0.7544 0.1235 0.6447
vn -0.4747 0.1799 0.8616
vn 0.6401 0.1542 0.7526
vn 0.5120 0.1713 -0.8417
vn -0.7854 0.1897 -0.5892
vn -0.6555 0.5731 -0.4917
vn 0.4190 0.5916 -0.6888
vn 0.5363 0.5611 0.6306
vn -0.3974 0.5674 0.7212
vn 0.6629 0.4896 0.5665
vn -0.2834 0.5218 -0.8046
vn 0.3287 0.5259 0.7844
vn 0.0000 0.5468 -0.8373
vn -0.2595 0.5196 -0.8141
vn -0.4852 0.5623 0.6697
vn 0.8670 0.4983 0.0000
vn -0.8585 0.4826 -0.1735
vn 0.7949 0.5457 -0.2652
vn -0.8610 0.4780 0.1740
vn -0.7529 0.5686 0.3314
vn 0.8233 0.4784 -0.3054
usemtl Material.001
s off
f 80/1/1 31/2/1 4/3/1 68/4/1
f 74/5/2 13/6/2 8/7/2 69/8/2
f 82/9/3 42/10/3 6/11/3 70/12/3
f 76/13/4 18/14/4 2/15/4 67/16/4
f 46/17/5 50/18/5 5/19/5 14/20/5
f 48/21/6 49/22/6 2/23/6 18/24/6
f 45/25/6 43/26/6 12/27/6 16/28/6
f 47/29/5 44/30/5 11/31/5 20/32/5
f 73/33/7 16/34/7 12/35/7 71/36/7
f 75/37/8 19/38/8 10/39/8 72/40/8
f 70/12/9 6/11/9 16/34/9 73/33/9
f 42/10/6 45/25/6 16/28/6 6/11/6
f 44/30/5 46/17/5 14/20/5 11/31/5
f 72/40/10 10/39/10 13/6/10 74/5/10
f 68/4/11 4/3/11 19/38/11 75/37/11
f 41/41/5 47/29/5 20/32/5 1/42/5
f 43/26/6 48/21/6 18/24/6 12/27/6
f 71/36/12 12/35/12 18/14/12 76/13/12
f 35/43/6 40/44/6 30/45/6 25/46/6
f 33/47/5 39/48/5 29/49/5 21/50/5
f 36/51/5 38/52/5 28/53/5 26/54/5
f 34/55/6 37/56/6 27/57/6 24/58/6
f 39/48/5 36/51/5 26/54/5 29/49/5
f 37/56/6 35/43/6 25/46/6 27/57/6
f 40/44/6 31/59/6 22/60/6 30/45/6
f 38/52/5 32/61/5 23/62/5 28/53/5
f 79/63/13 34/55/13 24/58/13 77/64/13
f 81/65/14 49/66/14 22/67/14 78/68/14
f 69/8/15 8/7/15 34/55/15 79/63/15
f 15/69/5 7/70/5 32/61/5 38/52/5
f 19/71/6 4/72/6 31/59/6 40/44/6
f 13/73/6 10/74/6 35/43/6 37/56/6
f 17/75/5 9/76/5 36/51/5 39/48/5
f 8/7/6 13/73/6 37/56/6 34/55/6
f 9/76/5 15/69/5 38/52/5 36/51/5
f 3/77/5 17/75/5 39/48/5 33/47/5
f 10/74/6 19/71/6 40/44/6 35/43/6
f 78/68/16 22/67/16 31/2/16 80/1/16
f 67/78/17 2/79/17 49/66/17 81/65/17
f 25/46/6 30/45/6 48/21/6 43/26/6
f 21/50/5 29/49/5 47/29/5 41/41/5
f 26/54/5 28/53/5 46/17/5 44/30/5
f 24/58/6 27/57/6 45/25/6 42/10/6
f 29/49/5 26/54/5 44/30/5 47/29/5
f 27/57/6 25/46/6 43/26/6 45/25/6
f 30/45/6 22/60/6 49/22/6 48/21/6
f 28/53/5 23/62/5 50/18/5 46/17/5
f 77/64/18 24/58/18 42/10/18 82/9/18
f 92/80/19 61/81/19 66/82/19 97/83/19
f 98/84/20 51/85/20 65/86/20 96/87/20
f 93/88/21 62/89/21 64/90/21 95/91/21
f 84/92/22 53/93/22 63/94/22 94/95/22
f 96/87/23 65/86/23 62/89/23 93/88/23
f 94/95/24 63/94/24 61/81/24 92/80/24
f 86/96/25 55/97/25 60/98/25 91/99/25
f 83/100/26 52/101/26 59/102/26 90/103/26
f 87/104/27 56/105/27 58/106/27 89/107/27
f 85/108/28 54/109/28 57/110/28 88/111/28
f 90/103/29 59/102/29 56/105/29 87/104/29
f 88/111/30 57/110/30 55/97/30 86/96/30
f 91/99/31 60/98/31 51/112/31 98/113/31
f 97/83/32 66/82/32 54/109/32 85/108/32
f 89/107/33 58/106/33 53/93/33 84/92/33
f 95/91/34 64/90/34 52/101/34 83/100/34
f 61/81/35 77/64/35 82/9/35 66/82/35
f 51/85/36 67/78/36 81/65/36 65/86/36
f 62/89/37 78/68/37 80/1/37 64/90/37
f 53/93/38 69/8/38 79/63/38 63/94/38
f 65/86/39 81/65/39 78/68/39 62/89/39
f 63/94/40 79/63/40 77/64/40 61/81/40
f 55/97/41 71/36/41 76/13/41 60/98/41
f 52/101/42 68/4/42 75/37/42 59/102/42
f 56/105/43 72/40/43 74/5/43 58/106/43
f 54/109/44 70/12/44 73/33/44 57/110/44
f 59/102/45 75/37/45 72/40/45 56/105/45
f 57/110/46 73/33/46 71/36/46 55/97/46
f 60/98/47 76/13/47 67/16/47 51/112/47
f 66/82/48 82/9/48 70/12/48 54/109/48
f 58/106/49 74/5/49 69/8/49 53/93/49
f 64/90/50 80/1/50 68/4/50 52/101/50
f 33/114/51 95/91/51 83/100/51 3/115/51
f 15/116/52 89/107/52 84/92/52 7/70/52
f 50/18/53 97/83/53 85/108/53 5/19/53
f 20/117/54 91/99/54 98/113/54 1/118/54
f 14/119/55 88/111/55 86/96/55 11/120/55
f 17/121/56 90/103/56 87/104/56 9/122/56
f 5/19/57 85/108/57 88/111/57 14/119/57
f 9/122/58 87/104/58 89/107/58 15/116/58
f 3/115/59 83/100/59 90/103/59 17/121/59
f 11/120/60 86/96/60 91/99/60 20/117/60
f 32/61/61 94/95/61 92/80/61 23/62/61
f 41/123/62 96/87/62 93/88/62 21/124/62
f 7/70/63 84/92/63 94/95/63 32/61/63
f 21/124/64 93/88/64 95/91/64 33/114/64
f 1/125/65 98/84/65 96/87/65 41/123/65
f 23/62/66 92/80/66 97/83/66 50/18/66
f 7/70/6 32/61/6 111/126/6 102/127/6
f 15/69/6 7/70/6 102/127/6 106/128/6
f 1/42/6 41/41/6 113/129/6 99/130/6
f 23/62/6 50/18/6 114/131/6 110/132/6
f 20/32/6 1/42/6 99/130/6 108/133/6
f 41/41/6 21/50/6 109/134/6 113/129/6
f 5/19/6 14/20/6 105/135/6 101/136/6
f 50/18/6 5/19/6 101/136/6 114/131/6
f 3/77/6 17/75/6 107/137/6 100/138/6
f 9/76/6 15/69/6 106/128/6 103/139/6
f 32/61/6 23/62/6 110/132/6 111/126/6
f 17/75/6 9/76/6 103/139/6 107/137/6
f 33/47/6 3/77/6 100/138/6 112/140/6
f 14/20/6 11/31/6 104/141/6 105/135/6
f 21/50/6 33/47/6 112/140/6 109/134/6
f 11/31/6 20/32/6 108/133/6 104/141/6
