# Blender v2.81 (sub 16) OBJ File: 'Small_StepStone.blend'
# www.blender.org
mtllib Small_StepStone.mtl
o Cube_Cube.001
v -4.231178 -0.125815 1.639838
v -4.059188 0.292586 1.484017
v -3.231619 -0.125815 -3.246392
v -3.066052 0.292586 -3.095851
v 1.628062 -0.125815 2.335762
v 1.466152 0.292586 2.190044
v 2.109586 -0.125815 -2.315650
v 1.949747 0.292586 -2.139321
v 0.004133 -0.125815 -3.600619
v 0.000000 0.292586 -3.392590
v -0.597749 -0.125815 2.026157
v -0.601882 0.292586 1.755721
v 1.297235 0.292586 -2.536267
v 0.549548 -0.125815 2.787747
v 1.404965 -0.125815 -2.744296
v 0.467399 0.292586 2.608603
v -2.306345 -0.125815 -3.541327
v -1.930604 0.292586 2.000440
v -2.209206 0.292586 -3.368975
v -2.027744 -0.125815 2.197502
v -4.590259 -0.125815 -1.284935
v -4.412317 0.292586 -1.279452
v 2.423421 -0.125815 -0.005483
v 2.240373 0.292586 0.000000
v 0.000000 0.292586 0.000000
v 0.000000 -0.125815 0.000000
v 1.297235 0.292586 0.000000
v 1.297235 -0.125815 0.000000
v -1.268133 -0.125815 0.000000
v -1.268133 0.292586 -1.279452
v -3.477339 0.292586 -2.547585
v 2.423421 -0.125815 -1.374890
v -3.675752 -0.125815 -2.654341
v 2.240373 0.292586 -1.268133
v 0.000000 0.292586 -1.268133
v 0.000000 -0.125815 -1.268133
v 1.297235 0.292586 -1.268133
v 1.297235 -0.125815 -1.268133
v -1.268133 -0.125815 -1.268133
v -2.209206 0.292586 -2.547585
v -4.588470 -0.125815 1.363923
v 2.201241 0.292586 1.564847
v 0.000000 0.292586 1.268133
v 0.000000 -0.125815 1.268133
v 0.787712 0.292586 1.564847
v 1.297235 -0.125815 1.268133
v -1.268133 -0.125815 1.268133
v -1.930604 0.292586 1.268133
v -4.390057 0.292586 1.268133
v 2.421854 -0.125815 1.660636
v -4.109192 0.083386 1.529320
v -3.114188 0.083386 -3.139619
v 1.996218 0.083386 -2.190586
v 1.513225 0.083386 2.232409
v -0.600681 0.083386 1.834346
v 0.001202 0.083386 -3.453072
v 0.491283 0.083386 2.660687
v 1.328556 0.083386 -2.596748
v -2.238361 0.083386 -3.477012
v -1.958846 0.083386 2.057733
v 2.293591 0.083386 -0.001594
v -4.499718 0.081749 -1.282145
v 2.293591 0.083386 -1.299171
v -3.535025 0.083386 -2.578623
v -4.447742 0.083386 1.295983
v 2.265381 0.083386 1.592696
v -4.092757 0.188088 1.516519
v -3.098284 0.188088 -3.127116
v 1.985246 0.188088 -2.175953
v 1.502081 0.188088 2.220442
v -0.598793 0.188088 1.812078
v 0.003089 0.188088 -3.435821
v 0.486727 0.188088 2.645959
v 1.321887 0.188088 -2.579498
v -2.227195 0.188088 -3.404779
v -1.948593 0.188088 2.041526
v 2.280702 0.188088 -0.001073
v -4.447124 0.188088 -1.280524
v 2.280702 0.188088 -1.290285
v -3.516407 0.188088 -2.569736
v -4.429126 0.188088 1.288140
v 2.249388 0.188088 1.584853
v -3.177250 -0.021214 -3.196957
v 2.057098 -0.021214 -2.257746
v 1.574893 -0.021214 2.287910
v -0.599107 -0.021214 1.937351
v 0.002776 -0.021214 -3.532306
v 0.522572 -0.021214 2.728920
v 1.369588 -0.021214 -2.675983
v -2.274446 -0.021214 -3.484729
v -1.995845 -0.021214 2.132791
v 2.363312 -0.021214 -0.003683
v -4.531826 -0.021214 -1.283134
v 2.363312 -0.021214 -1.339833
v -3.610597 -0.021214 -2.619285
v -4.523315 -0.021214 1.332467
v 2.349409 -0.021214 1.629181
v -4.174699 -0.021214 1.588669
v -4.286830 -0.125815 1.690258
v -3.285193 -0.125815 -3.295104
v 1.680452 -0.125815 2.382912
v 2.161307 -0.125815 -2.372706
v 0.005470 -0.125815 -3.667933
v -0.596412 -0.125815 2.113664
v 0.576130 -0.125815 2.845714
v 1.439824 -0.125815 -2.811610
v -2.337778 -0.125815 -3.597096
v -2.059176 -0.125815 2.261267
v -4.647837 -0.125815 -1.286709
v 2.482652 -0.125815 -0.007258
v 2.482652 -0.125815 -1.409434
v -3.739954 -0.125815 -2.688885
v -4.652672 -0.125815 1.394918
v 2.493240 -0.125815 1.691631
vt 0.562500 0.187500
vt 0.625000 0.187500
vt 0.625000 0.250000
vt 0.562500 0.250000
vt 0.562500 0.438934
vt 0.625000 0.438934
vt 0.625000 0.500000
vt 0.562500 0.500000
vt 0.562500 0.687500
vt 0.625000 0.687500
vt 0.625000 0.750000
vt 0.562500 0.750000
vt 0.562500 0.937500
vt 0.625000 0.937500
vt 0.625000 1.000000
vt 0.562500 1.000000
vt 0.313934 0.687500
vt 0.375000 0.687500
vt 0.375000 0.750000
vt 0.313934 0.750000
vt 0.812500 0.687500
vt 0.875000 0.687500
vt 0.875000 0.750000
vt 0.812500 0.750000
vt 0.686066 0.687500
vt 0.750000 0.687500
vt 0.750000 0.750000
vt 0.686066 0.750000
vt 0.187500 0.687500
vt 0.250000 0.687500
vt 0.250000 0.750000
vt 0.187500 0.750000
vt 0.562500 0.811066
vt 0.625000 0.811066
vt 0.625000 0.875000
vt 0.562500 0.875000
vt 0.562500 0.312500
vt 0.625000 0.312500
vt 0.625000 0.375000
vt 0.562500 0.375000
vt 0.125000 0.687500
vt 0.125000 0.750000
vt 0.750000 0.562500
vt 0.812500 0.562500
vt 0.812500 0.625000
vt 0.750000 0.625000
vt 0.125000 0.562500
vt 0.187500 0.562500
vt 0.187500 0.625000
vt 0.125000 0.625000
vt 0.250000 0.562500
vt 0.313934 0.562500
vt 0.313934 0.625000
vt 0.250000 0.625000
vt 0.625000 0.562500
vt 0.686066 0.562500
vt 0.686066 0.625000
vt 0.625000 0.625000
vt 0.875000 0.562500
vt 0.875000 0.625000
vt 0.375000 0.562500
vt 0.375000 0.625000
vt 0.562500 0.562500
vt 0.562500 0.625000
vt 0.562500 0.062500
vt 0.625000 0.062500
vt 0.625000 0.125000
vt 0.562500 0.125000
vt 0.313934 0.500000
vt 0.375000 0.500000
vt 0.812500 0.500000
vt 0.875000 0.500000
vt 0.686066 0.500000
vt 0.750000 0.500000
vt 0.187500 0.500000
vt 0.250000 0.500000
vt 0.125000 0.500000
vt 0.562500 0.000000
vt 0.625000 0.000000
vt 0.437500 0.625000
vt 0.500000 0.625000
vt 0.500000 0.687500
vt 0.437500 0.687500
vt 0.437500 0.000000
vt 0.500000 0.000000
vt 0.500000 0.062500
vt 0.437500 0.062500
vt 0.437500 0.125000
vt 0.500000 0.125000
vt 0.500000 0.187500
vt 0.437500 0.187500
vt 0.437500 0.500000
vt 0.500000 0.500000
vt 0.500000 0.562500
vt 0.437500 0.562500
vt 0.437500 0.875000
vt 0.500000 0.875000
vt 0.500000 0.937500
vt 0.437500 0.937500
vt 0.437500 0.250000
vt 0.500000 0.250000
vt 0.500000 0.312500
vt 0.437500 0.312500
vt 0.437500 0.375000
vt 0.500000 0.375000
vt 0.500000 0.438934
vt 0.437500 0.438934
vt 0.437500 0.750000
vt 0.500000 0.750000
vt 0.500000 0.811066
vt 0.437500 0.811066
vt 0.500000 1.000000
vt 0.437500 1.000000
vt 0.375000 0.187500
vt 0.375000 0.250000
vt 0.375000 0.438934
vt 0.375000 0.937500
vt 0.375000 1.000000
vt 0.375000 0.811066
vt 0.375000 0.875000
vt 0.375000 0.312500
vt 0.375000 0.375000
vt 0.375000 0.062500
vt 0.375000 0.125000
vt 0.375000 0.000000
vt 0.375000 0.562500
vt 0.375000 0.500000
vt 0.313934 0.500000
vt 0.125000 0.687500
vt 0.125000 0.750000
vt 0.375000 0.687500
vt 0.375000 0.625000
vt 0.187500 0.750000
vt 0.125000 0.625000
vt 0.313934 0.750000
vt 0.375000 0.750000
vt 0.187500 0.500000
vt 0.125000 0.500000
vt 0.250000 0.500000
vt 0.125000 0.562500
vt 0.250000 0.750000
vn -0.7359 0.3921 -0.5520
vn 0.4693 0.4298 -0.7714
vn 0.5921 0.4061 0.6961
vn -0.2198 0.3718 0.9019
vn 0.0000 -1.0000 -0.0000
vn 0.0000 1.0000 0.0000
vn -0.5925 0.2758 0.7569
vn -0.0115 0.3544 -0.9350
vn 0.3587 0.3723 0.8560
vn 0.5052 0.3863 -0.7717
vn -0.2840 0.3542 -0.8910
vn 0.1592 0.4078 0.8991
vn 0.9329 0.3600 0.0000
vn -0.9426 0.3339 0.0074
vn 0.8704 0.3975 -0.2904
vn -0.7623 0.3312 -0.5561
vn -0.5143 0.3728 0.7724
vn 0.9200 0.3913 0.0206
vn 0.8049 0.5933 0.0105
vn -0.4610 0.6073 0.6471
vn -0.7159 0.4742 -0.5125
vn 0.7570 0.6027 -0.2525
vn -0.8869 0.4618 0.0102
vn 0.8321 0.5546 0.0000
vn 0.1164 0.6322 0.7660
vn -0.3023 0.4108 -0.8602
vn 0.4295 0.5992 -0.6756
vn 0.3141 0.5828 0.7494
vn -0.0048 0.3845 -0.9231
vn -0.5131 0.4940 0.7020
vn -0.1932 0.5956 0.7797
vn 0.5093 0.6180 0.5989
vn 0.3958 0.6481 -0.6506
vn -0.6212 0.6300 -0.4660
vn 0.9904 0.1372 0.0185
vn -0.5561 0.1732 0.8129
vn -0.7723 0.2888 -0.5659
vn 0.9390 0.1422 -0.3132
vn -0.9473 0.3200 0.0128
vn 0.9925 0.1222 0.0000
vn 0.1626 0.1692 0.9721
vn -0.3057 0.3908 -0.8682
vn 0.5373 0.1490 -0.8301
vn 0.3824 0.1450 0.9125
vn -0.0015 0.3930 -0.9195
vn -0.6010 0.1316 0.7883
vn -0.2351 0.1627 0.9583
vn 0.6401 0.1542 0.7526
vn 0.5120 0.1713 -0.8417
vn -0.7854 0.1897 -0.5892
vn -0.6555 0.5731 -0.4917
vn 0.4190 0.5916 -0.6888
vn 0.5363 0.5611 0.6306
vn -0.2054 0.5392 0.8168
vn -0.5040 0.4514 0.7363
vn -0.0200 0.5147 -0.8571
vn 0.3287 0.5259 0.7844
vn 0.4416 0.5437 -0.7137
vn -0.2595 0.5196 -0.8141
vn 0.1050 0.5783 0.8090
vn 0.8670 0.4983 0.0000
vn -0.8609 0.5088 0.0017
vn 0.7949 0.5457 -0.2652
vn -0.7134 0.5067 -0.4840
vn -0.5011 0.5539 0.6648
vn 0.8444 0.5356 0.0040
usemtl Material.001
s off
f 80/1/1 31/2/1 4/3/1 68/4/1
f 74/5/2 13/6/2 8/7/2 69/8/2
f 82/9/3 42/10/3 6/11/3 70/12/3
f 76/13/4 18/14/4 2/15/4 67/16/4
f 46/17/5 50/18/5 5/19/5 14/20/5
f 48/21/6 49/22/6 2/23/6 18/24/6
f 45/25/6 43/26/6 12/27/6 16/28/6
f 47/29/5 44/30/5 11/31/5 20/32/5
f 73/33/7 16/34/7 12/35/7 71/36/7
f 75/37/8 19/38/8 10/39/8 72/40/8
f 70/12/9 6/11/9 16/34/9 73/33/9
f 42/10/6 45/25/6 16/28/6 6/11/6
f 44/30/5 46/17/5 14/20/5 11/31/5
f 72/40/10 10/39/10 13/6/10 74/5/10
f 68/4/11 4/3/11 19/38/11 75/37/11
f 41/41/5 47/29/5 20/32/5 1/42/5
f 43/26/6 48/21/6 18/24/6 12/27/6
f 71/36/12 12/35/12 18/14/12 76/13/12
f 35/43/6 40/44/6 30/45/6 25/46/6
f 33/47/5 39/48/5 29/49/5 21/50/5
f 36/51/5 38/52/5 28/53/5 26/54/5
f 34/55/6 37/56/6 27/57/6 24/58/6
f 39/48/5 36/51/5 26/54/5 29/49/5
f 37/56/6 35/43/6 25/46/6 27/57/6
f 40/44/6 31/59/6 22/60/6 30/45/6
f 38/52/5 32/61/5 23/62/5 28/53/5
f 79/63/13 34/55/13 24/58/13 77/64/13
f 81/65/14 49/66/14 22/67/14 78/68/14
f 69/8/15 8/7/15 34/55/15 79/63/15
f 15/69/5 7/70/5 32/61/5 38/52/5
f 19/71/6 4/72/6 31/59/6 40/44/6
f 13/73/6 10/74/6 35/43/6 37/56/6
f 17/75/5 9/76/5 36/51/5 39/48/5
f 8/7/6 13/73/6 37/56/6 34/55/6
f 9/76/5 15/69/5 38/52/5 36/51/5
f 3/77/5 17/75/5 39/48/5 33/47/5
f 10/74/6 19/71/6 40/44/6 35/43/6
f 78/68/16 22/67/16 31/2/16 80/1/16
f 67/78/17 2/79/17 49/66/17 81/65/17
f 25/46/6 30/45/6 48/21/6 43/26/6
f 21/50/5 29/49/5 47/29/5 41/41/5
f 26/54/5 28/53/5 46/17/5 44/30/5
f 24/58/6 27/57/6 45/25/6 42/10/6
f 29/49/5 26/54/5 44/30/5 47/29/5
f 27/57/6 25/46/6 43/26/6 45/25/6
f 30/45/6 22/60/6 49/22/6 48/21/6
f 28/53/5 23/62/5 50/18/5 46/17/5
f 77/64/18 24/58/18 42/10/18 82/9/18
f 92/80/19 61/81/19 66/82/19 97/83/19
f 98/84/20 51/85/20 65/86/20 96/87/20
f 93/88/21 62/89/21 64/90/21 95/91/21
f 84/92/22 53/93/22 63/94/22 94/95/22
f 96/87/23 65/86/23 62/89/23 93/88/23
f 94/95/24 63/94/24 61/81/24 92/80/24
f 86/96/25 55/97/25 60/98/25 91/99/25
f 83/100/26 52/101/26 59/102/26 90/103/26
f 87/104/27 56/105/27 58/106/27 89/107/27
f 85/108/28 54/109/28 57/110/28 88/111/28
f 90/103/29 59/102/29 56/105/29 87/104/29
f 88/111/30 57/110/30 55/97/30 86/96/30
f 91/99/31 60/98/31 51/112/31 98/113/31
f 97/83/32 66/82/32 54/109/32 85/108/32
f 89/107/33 58/106/33 53/93/33 84/92/33
f 95/91/34 64/90/34 52/101/34 83/100/34
f 61/81/35 77/64/35 82/9/35 66/82/35
f 51/85/36 67/78/36 81/65/36 65/86/36
f 62/89/37 78/68/37 80/1/37 64/90/37
f 53/93/38 69/8/38 79/63/38 63/94/38
f 65/86/39 81/65/39 78/68/39 62/89/39
f 63/94/40 79/63/40 77/64/40 61/81/40
f 55/97/41 71/36/41 76/13/41 60/98/41
f 52/101/42 68/4/42 75/37/42 59/102/42
f 56/105/43 72/40/43 74/5/43 58/106/43
f 54/109/44 70/12/44 73/33/44 57/110/44
f 59/102/45 75/37/45 72/40/45 56/105/45
f 57/110/46 73/33/46 71/36/46 55/97/46
f 60/98/47 76/13/47 67/16/47 51/112/47
f 66/82/48 82/9/48 70/12/48 54/109/48
f 58/106/49 74/5/49 69/8/49 53/93/49
f 64/90/50 80/1/50 68/4/50 52/101/50
f 33/114/51 95/91/51 83/100/51 3/115/51
f 15/116/52 89/107/52 84/92/52 7/70/52
f 50/18/53 97/83/53 85/108/53 5/19/53
f 20/117/54 91/99/54 98/113/54 1/118/54
f 14/119/55 88/111/55 86/96/55 11/120/55
f 17/121/56 90/103/56 87/104/56 9/122/56
f 5/19/57 85/108/57 88/111/57 14/119/57
f 9/122/58 87/104/58 89/107/58 15/116/58
f 3/115/59 83/100/59 90/103/59 17/121/59
f 11/120/60 86/96/60 91/99/60 20/117/60
f 32/61/61 94/95/61 92/80/61 23/62/61
f 41/123/62 96/87/62 93/88/62 21/124/62
f 7/70/63 84/92/63 94/95/63 32/61/63
f 21/124/64 93/88/64 95/91/64 33/114/64
f 1/125/65 98/84/65 96/87/65 41/123/65
f 23/62/66 92/80/66 97/83/66 50/18/66
f 7/70/6 32/61/6 111/126/6 102/127/6
f 15/69/6 7/70/6 102/127/6 106/128/6
f 1/42/6 41/41/6 113/129/6 99/130/6
f 23/62/6 50/18/6 114/131/6 110/132/6
f 20/32/6 1/42/6 99/130/6 108/133/6
f 41/41/6 21/50/6 109/134/6 113/129/6
f 5/19/6 14/20/6 105/135/6 101/136/6
f 50/18/6 5/19/6 101/136/6 114/131/6
f 3/77/6 17/75/6 107/137/6 100/138/6
f 9/76/6 15/69/6 106/128/6 103/139/6
f 32/61/6 23/62/6 110/132/6 111/126/6
f 17/75/6 9/76/6 103/139/6 107/137/6
f 33/47/6 3/77/6 100/138/6 112/140/6
f 14/20/6 11/31/6 104/141/6 105/135/6
f 21/50/6 33/47/6 112/140/6 109/134/6
f 11/31/6 20/32/6 108/133/6 104/141/6
