# Blender v2.80 (sub 75) OBJ File: 'LargeRock2.blend'
# www.blender.org
mtllib LargeRock2.mtl
o Sphere
v 5.294201 3.524842 -4.652862
v 3.442731 3.642656 -5.573890
v 0.813123 4.697227 -4.621885
v -2.828340 2.766393 -6.479352
v -1.508381 4.207195 -5.537732
v -5.400844 1.710245 -5.785312
v -8.443561 -3.035565 -1.620953
v -8.342304 -2.432071 -1.745168
v -5.007292 -2.658012 -5.989941
v -6.441473 -0.455158 -5.237434
v -7.996490 -0.242418 -2.472259
v -8.364611 -3.369894 -1.529900
v -6.328712 -3.908844 1.138240
v -7.996498 -3.255603 -0.690938
v -5.895602 -3.899283 -4.093979
v -7.726365 -3.532469 -2.296405
v 6.062258 4.495256 0.772814
v -2.678926 -4.041448 5.371808
v -5.314463 -2.688270 4.089553
v -5.969060 0.293527 5.329699
v 7.446619 1.927113 2.223779
v 7.327307 -0.534711 3.436175
v 6.342197 3.710551 2.927583
v -3.901500 3.103730 7.200210
v -3.424356 0.796314 7.396735
v 3.596466 -3.388869 5.956284
v 0.486075 -3.546164 6.758413
v 5.726358 -1.325929 5.993527
v 3.469674 -0.268076 8.016220
v -0.080462 -0.860986 8.036460
v 5.990455 3.496850 -3.809361
v 5.459671 3.035046 -5.154055
v 6.709884 3.496563 -0.887876
v 7.490886 1.169155 0.531621
v 2.910094 2.456887 -6.999366
v -0.208039 0.498503 -7.804008
v -2.320141 -2.015805 -7.834268
v -0.402241 -4.453596 -7.342418
v 4.788920 1.076651 -6.439588
v 1.253296 5.319175 -2.209712
v 3.451567 5.223451 0.271393
v 2.301050 5.527545 2.873571
v 4.636500 3.910573 5.354409
v -0.379095 3.643820 7.360653
v 2.547134 2.867852 7.279268
v 2.448259 5.056784 5.074005
v -0.551291 4.929901 5.839802
v -3.333161 4.374246 -3.983952
v -5.712232 2.875530 -3.675797
v -7.483648 1.548043 -1.070876
v -6.627135 2.204436 3.804612
v -4.446718 3.899170 5.464959
v -1.088041 5.374776 -2.004881
v -0.284952 5.541688 2.025443
v -2.409647 5.032383 4.894432
v 2.487739 -4.953051 4.084838
v -1.209068 -5.148584 3.110837
v -1.365549 -4.964847 -5.847606
v -4.035562 -4.957864 -3.421634
v -4.455371 -5.017184 0.604558
v 6.856454 -2.793102 1.875106
v 6.886202 -1.144794 -1.621877
v 4.916398 -1.737541 -4.742700
v 1.732393 -4.045469 -6.902923
v 1.870813 -5.034102 -4.004055
v 4.511955 -4.466600 -0.491982
vt 0.571097 0.884469
vt 0.610329 0.853682
vt 0.595439 0.879329
vt 0.804258 0.633301
vt 0.884696 0.620475
vt 0.867996 0.650613
vt 0.704122 0.809085
vt 0.723001 0.840437
vt 0.712810 0.738800
vt 0.901882 0.508390
vt 0.849616 0.648585
vt 0.904232 0.519770
vt 0.940859 0.190915
vt 0.940427 0.198287
vt 0.937500 0.196491
vt 0.937500 0.193992
vt 0.934722 0.196156
vt 0.837272 0.352867
vt 0.888557 0.221599
vt 0.923186 0.334918
vt 0.859398 0.390963
vt 0.911999 0.405868
vt 0.939299 0.159634
vt 0.608595 0.214237
vt 0.197742 0.354187
vt 0.245908 0.434455
vt 0.515051 0.548883
vt 0.478166 0.785157
vt 0.397657 0.788544
vt 0.397900 0.576354
vt 0.513083 0.546858
vt 0.337526 0.590100
vt 0.301202 0.330791
vt 0.353669 0.266522
vt 0.418022 0.410468
vt 0.395761 0.571358
vt 0.201687 0.394706
vt 0.389786 0.190545
vt 0.303885 0.779795
vt 0.311035 0.613753
vt 0.383101 0.825818
vt 0.432382 0.160451
vt 0.483361 0.380916
vt 0.530719 0.890795
vt 0.448890 0.891396
vt 0.694512 0.731294
vt 0.670317 0.806312
vt 0.394933 0.865506
vt 0.763577 0.390393
vt 0.278792 0.782888
vt 0.295097 0.800970
vt 0.612636 0.733524
vt 0.187436 0.556112
vt 0.177800 0.520823
vt 0.167041 0.627616
vt 0.130177 0.533361
vt 0.188607 0.634113
vt 0.291835 0.698832
vt 0.765302 0.167892
vt 0.722110 0.105804
vt 0.741956 0.379903
vt 0.702484 0.319984
vt 0.672981 0.437837
vt 0.647046 0.572328
vt 0.496260 0.391870
vt 0.661265 0.367540
vn 0.5844 0.6683 -0.4602
vn 0.0009 0.6152 -0.7884
vn -0.4558 0.7193 -0.5242
vn -0.8823 0.1251 0.4537
vn -0.7583 -0.3319 -0.5611
vn -0.7872 -0.2167 -0.5774
vn -0.9403 -0.0842 0.3297
vn 0.9876 -0.1504 -0.0442
vn 0.2465 -0.4827 0.8404
vn -0.4399 -0.4190 0.7943
vn 0.7344 0.2568 0.6282
vn 0.0091 -0.8860 0.4636
vn 0.9029 0.4298 0.0095
vn 0.4275 0.5200 -0.7395
vn 0.3089 0.9209 -0.2377
vn -0.4127 0.1264 -0.9020
vn 0.3769 0.9099 0.1734
vn -0.0868 0.9543 -0.2858
vn -0.0357 0.1520 0.9877
vn -0.2205 0.7943 0.5661
vn 0.2061 0.7155 0.6676
vn -0.0233 0.9851 0.1706
vn 0.0473 0.9976 -0.0507
vn -0.7454 0.1893 0.6392
vn -0.8244 0.4116 -0.3885
vn -0.4981 0.8670 -0.0127
vn -0.4104 -0.9116 -0.0245
vn -0.4098 -0.6802 -0.6078
vn -0.4098 -0.8378 0.3607
vn 0.6872 -0.6520 -0.3203
vn 0.0401 -0.9991 -0.0110
vn 0.1814 -0.9406 -0.2870
vn 0.3414 -0.1400 -0.9294
vn 0.9270 -0.0284 -0.3739
vn 0.6067 -0.7386 0.2939
usemtl None
s off
f 31/1/1 32/2/1 1/3/1
f 36/4/2 4/5/2 5/6/2 3/7/2 2/8/2 35/9/2
f 49/10/3 48/11/3 5/6/3 4/5/3 6/12/3
f 14/13/4 8/14/4 7/15/4 12/16/4
f 12/16/5 7/15/5 16/17/5
f 9/18/6 15/19/6 16/17/6 7/15/6 8/14/6 11/20/6 10/21/6
f 50/22/7 11/20/7 8/14/7 14/13/7 13/23/7 19/24/7 20/25/7 51/26/7
f 62/27/8 34/28/8 21/29/8 22/30/8 61/31/8
f 29/32/9 30/33/9 27/34/9 26/35/9 28/36/9
f 27/34/10 30/33/10 25/37/10 20/25/10 19/24/10 18/38/10
f 43/39/11 45/40/11 29/32/11 28/36/11 22/30/11 21/29/11 23/41/11
f 57/42/12 56/43/12 26/35/12 27/34/12 18/38/12
f 21/29/13 34/28/13 33/44/13 17/45/13 23/41/13
f 35/9/14 2/8/14 1/3/14 32/2/14 39/46/14
f 40/47/15 41/48/15 17/45/15 33/44/15 31/1/15 1/3/15 2/8/15 3/7/15
f 10/21/16 6/12/16 4/5/16 36/4/16 37/49/16 9/18/16
f 46/50/17 43/39/17 23/41/17 17/45/17 41/48/17 42/51/17
f 48/11/18 53/52/18 40/47/18 3/7/18 5/6/18
f 29/32/19 45/40/19 44/53/19 24/54/19 25/37/19 30/33/19
f 55/55/20 52/56/20 24/54/20 44/53/20 47/57/20
f 46/50/21 47/57/21 44/53/21 45/40/21 43/39/21
f 47/57/22 46/50/22 42/51/22 54/58/22 55/55/22
f 41/48/23 40/47/23 53/52/23 54/58/23 42/51/23
f 20/25/24 25/37/24 24/54/24 52/56/24 51/26/24
f 6/12/25 10/21/25 11/20/25 50/22/25 49/10/25
f 48/11/26 49/10/26 50/22/26 51/26/26 52/56/26 55/55/26 54/58/26 53/52/26
f 13/23/27 14/13/27 12/16/27 16/17/27 15/19/27 59/59/27 60/60/27
f 15/19/28 9/18/28 37/49/28 38/61/28 58/62/28 59/59/28
f 18/38/29 19/24/29 13/23/29 60/60/29 57/42/29
f 64/63/30 63/64/30 62/27/30 61/31/30 66/65/30 65/66/30
f 58/62/31 65/66/31 66/65/31 56/43/31 57/42/31 60/60/31 59/59/31
f 38/61/32 64/63/32 65/66/32 58/62/32
f 36/4/33 35/9/33 39/46/33 63/64/33 64/63/33 38/61/33 37/49/33
f 33/44/34 34/28/34 62/27/34 63/64/34 39/46/34 32/2/34 31/1/34
f 28/36/35 26/35/35 56/43/35 66/65/35 61/31/35 22/30/35
