# Blender v2.81 (sub 16) OBJ File: 'circlePaintFrame-lowpoly_WIP.blend'
# www.blender.org
mtllib circlePaintFrame-lowpoly_WIP.mtl
o CircleFrame_Circle
v -0.000000 0.000000 1.061735
v -0.000000 0.407106 1.016954
v -0.000000 0.778914 0.887047
v -0.000000 1.083768 0.684951
v -0.000000 1.297506 0.430506
v -0.000000 1.406502 0.146512
v -0.000000 1.406502 -0.146512
v -0.000000 1.297506 -0.430506
v -0.000000 1.083768 -0.684951
v -0.000000 0.778914 -0.887048
v -0.000000 0.407106 -1.016954
v -0.000000 0.000000 -1.061735
v -0.000000 -0.407106 -1.016954
v -0.000000 -0.778914 -0.887048
v -0.000000 -1.083768 -0.684952
v -0.000000 -1.297505 -0.430507
v -0.000000 -1.406501 -0.146512
v -0.000000 -1.406502 0.146511
v -0.000000 -1.297506 0.430506
v -0.000000 -1.083769 0.684951
v -0.000000 -0.778915 0.887047
v -0.000000 -0.407108 1.016953
v 0.250000 0.000000 1.139854
v 0.250000 0.419750 1.093682
v 0.249992 0.805495 0.958906
v 0.250000 1.125983 0.746445
v 0.250000 1.355251 0.473512
v 0.250000 1.474725 0.162218
v 0.250000 1.474725 -0.162218
v 0.250000 1.355251 -0.473512
v 0.250000 1.125983 -0.746445
v 0.250000 0.805495 -0.958906
v 0.250000 0.419751 -1.093681
v 0.250000 0.000000 -1.139854
v 0.250000 -0.419750 -1.093682
v 0.250000 -0.805494 -0.958906
v 0.250000 -1.125983 -0.746446
v 0.250000 -1.355251 -0.473513
v 0.250000 -1.474724 -0.162219
v 0.250000 -1.474725 0.162217
v 0.250000 -1.355251 0.473511
v 0.250000 -1.125984 0.746445
v 0.250000 -0.805496 0.958905
v 0.250000 -0.419752 1.093681
v 0.084731 0.419750 1.093682
v 0.084731 0.000000 1.139854
v 0.084731 0.805495 0.958906
v 0.084731 1.125983 0.746445
v 0.084731 1.355251 0.473512
v 0.084731 1.474725 0.162218
v 0.084731 1.474725 -0.162218
v 0.084731 1.355251 -0.473512
v 0.084731 1.125983 -0.746445
v 0.084731 0.805495 -0.958906
v 0.084731 0.419751 -1.093681
v 0.084731 0.000000 -1.139854
v 0.084731 -0.419750 -1.093682
v 0.084731 -0.805494 -0.958906
v 0.084731 -1.125983 -0.746446
v 0.084731 -1.355251 -0.473513
v 0.084731 -1.474724 -0.162219
v 0.084731 -1.474725 0.162217
v 0.084731 -1.355251 0.473511
v 0.084731 -1.125984 0.746445
v 0.084731 -0.805496 0.958905
v 0.084731 -0.419752 1.093681
v 0.107804 0.355187 0.836233
v 0.107804 0.000000 0.875303
v 0.107804 0.676878 0.723837
v 0.107804 0.935884 0.552135
v 0.107804 1.112312 0.342105
v 0.107804 1.199391 0.115217
v 0.107804 1.199391 -0.115217
v 0.107804 1.112312 -0.342105
v 0.107804 0.935884 -0.552135
v 0.107804 0.676878 -0.723837
v 0.107804 0.355187 -0.836232
v 0.107804 0.000000 -0.875303
v 0.107804 -0.355187 -0.836233
v 0.107804 -0.676877 -0.723837
v 0.107804 -0.935883 -0.552135
v 0.107804 -1.112312 -0.342105
v 0.107804 -1.199391 -0.115217
v 0.107804 -1.199391 0.115216
v 0.107804 -1.112312 0.342104
v 0.107804 -0.935884 0.552134
v 0.107804 -0.676879 0.723836
v 0.107804 -0.355189 0.836232
v 0.084357 0.381835 0.953827
v 0.084357 0.000000 0.995828
v 0.084357 0.730563 0.831984
v 0.084357 1.016494 0.642433
v 0.084357 1.216964 0.403783
v 0.084357 1.319194 0.137417
v 0.084357 1.319194 -0.137417
v 0.084357 1.216964 -0.403783
v 0.084357 1.016494 -0.642433
v 0.084357 0.730563 -0.831985
v 0.084357 0.381835 -0.953827
v 0.084357 0.000000 -0.995828
v 0.084357 -0.381835 -0.953827
v 0.084357 -0.730563 -0.831985
v 0.084357 -1.016493 -0.642434
v 0.084357 -1.216963 -0.403783
v 0.084357 -1.319194 -0.137418
v 0.084357 -1.319194 0.137416
v 0.084357 -1.216964 0.403782
v 0.084357 -1.016495 0.642433
v 0.084357 -0.730565 0.831984
v 0.084357 -0.381837 0.953827
v 0.230572 0.284756 0.670412
v 0.230572 0.000000 0.701735
v 0.230572 0.542657 0.580304
v 0.230572 0.750304 0.442649
v 0.230572 0.891747 0.274267
v 0.230572 0.961559 0.092370
v 0.230572 0.961559 -0.092370
v 0.230572 0.891747 -0.274267
v 0.230572 0.750304 -0.442650
v 0.230572 0.542657 -0.580304
v 0.230572 0.284756 -0.670412
v 0.230572 0.000000 -0.701735
v 0.230572 -0.284755 -0.670413
v 0.230573 -0.542657 -0.580304
v 0.230573 -0.750303 -0.442650
v 0.230573 -0.891747 -0.274268
v 0.230573 -0.961558 -0.092370
v 0.230573 -0.961559 0.092369
v 0.230573 -0.891747 0.274267
v 0.230573 -0.750304 0.442649
v 0.230573 -0.542658 0.580304
v 0.230572 -0.284757 0.670412
vt 0.000000 0.000000
vt 0.000000 0.000000
vt 0.000000 0.000000
vt 0.000000 0.000000
vt 0.000000 0.000000
vt 0.000000 0.000000
vt 0.000000 0.000000
vt 0.000000 0.000000
vt 0.000000 0.000000
vt 0.000000 0.000000
vt 0.000000 0.000000
vt 0.000000 0.000000
vt 0.000000 0.000000
vt 0.000000 0.000000
vt 0.000000 0.000000
vt 0.000000 0.000000
vt 0.000000 0.000000
vt 0.000000 0.000000
vt 0.000000 0.000000
vt 0.000000 0.000000
vt 0.000000 0.000000
vt 0.000000 0.000000
vt 0.000000 0.000000
vt 0.000000 0.000000
vt 0.000000 0.000000
vt 0.000000 0.000000
vt 0.000000 0.000000
vt 0.000000 0.000000
vt 0.000000 0.000000
vt 0.000000 0.000000
vt 0.000000 0.000000
vt 0.000000 0.000000
vt 0.000000 0.000000
vt 0.000000 0.000000
vt 0.000000 0.000000
vt 0.000000 0.000000
vt 0.000000 0.000000
vt 0.000000 0.000000
vt 0.000000 0.000000
vt 0.000000 0.000000
vt 0.000000 0.000000
vt 0.000000 0.000000
vt 0.000000 0.000000
vt 0.000000 0.000000
vt 0.000000 0.000000
vt 0.000000 0.000000
vt 0.000000 0.000000
vt 0.000000 0.000000
vt 0.000000 0.000000
vt 0.000000 0.000000
vt 0.000000 0.000000
vt 0.000000 0.000000
vt 0.000000 0.000000
vt 0.000000 0.000000
vt 0.000000 0.000000
vt 0.000000 0.000000
vt 0.000000 0.000000
vt 0.000000 0.000000
vt 0.000000 0.000000
vt 0.000000 0.000000
vt 0.000000 0.000000
vt 0.000000 0.000000
vt 0.000000 0.000000
vt 0.000000 0.000000
vt 0.000000 0.000000
vt 0.000000 0.000000
vt 0.000000 0.000000
vt 0.000000 0.000000
vt 0.000000 0.000000
vt 0.000000 0.000000
vt 0.000000 0.000000
vt 0.000000 0.000000
vt 0.000000 0.000000
vt 0.000000 0.000000
vt 0.000000 0.000000
vt 0.000000 0.000000
vt 0.000000 0.000000
vt 0.000000 0.000000
vt 0.000000 0.000000
vt 0.000000 0.000000
vt 0.000000 0.000000
vt 0.000000 0.000000
vt 0.000000 0.000000
vt 0.000000 0.000000
vt 0.000000 0.000000
vt 0.000000 0.000000
vt 0.000000 0.000000
vt 0.000000 0.000000
vt 0.000000 0.000000
vt 0.000000 0.000000
vt 0.000000 0.000000
vt 0.000000 0.000000
vt 0.000000 0.000000
vt 0.000000 0.000000
vt 0.000000 0.000000
vt 0.000000 0.000000
vt 0.000000 0.000000
vt 0.000000 0.000000
vt 0.000000 0.000000
vt 0.000000 0.000000
vt 0.000000 0.000000
vt 0.000000 0.000000
vt 0.000000 0.000000
vt 0.000000 0.000000
vt 0.000000 0.000000
vt 0.000000 0.000000
vt 0.000000 0.000000
vt 0.000000 0.000000
vt 0.000000 0.000000
vt 0.000000 0.000000
vt 0.000000 0.000000
vt 0.000000 0.000000
vt 0.000000 0.000000
vt 0.000000 0.000000
vt 0.000000 0.000000
vt 0.000000 0.000000
vt 0.000000 0.000000
vt 0.000000 0.000000
vt 0.000000 0.000000
vt 0.000000 0.000000
vt 0.000000 0.000000
vt 0.000000 0.000000
vt 0.000000 0.000000
vt 0.000000 0.000000
vt 0.000000 0.000000
vt 0.000000 0.000000
vt 0.000000 0.000000
vt 0.000000 0.000000
vt 0.000000 0.000000
vt 0.000000 0.000000
vt 0.000000 0.000000
vt 0.000000 0.000000
vn -0.6272 0.2569 0.7353
vn 1.0000 0.0000 0.0000
vn 0.0000 0.1093 0.9940
vn 0.0000 0.3298 0.9440
vn 0.0000 0.5525 0.8335
vn 0.0000 0.7657 0.6432
vn 0.0000 0.9336 0.3583
vn 0.0000 1.0000 0.0000
vn 0.0000 0.9336 -0.3583
vn 0.0000 0.7657 -0.6432
vn 0.0000 0.5525 -0.8335
vn 0.0000 0.3298 -0.9440
vn 0.0000 0.1093 -0.9940
vn 0.0000 -0.1093 -0.9940
vn 0.0000 -0.3298 -0.9440
vn 0.0000 -0.5525 -0.8335
vn 0.0000 -0.7657 -0.6432
vn 0.0000 -0.9336 -0.3583
vn 0.0000 -1.0000 -0.0000
vn 0.0000 -0.9336 0.3583
vn 0.0000 -0.7657 0.6432
vn 0.0000 -0.5525 0.8335
vn 0.0000 -0.3298 0.9440
vn 0.0000 -0.1093 0.9940
vn -0.6756 0.0806 0.7328
vn -0.6706 0.2447 0.7003
vn -0.6607 0.4148 0.6256
vn -0.6469 0.5839 0.4905
vn -0.6332 0.7226 0.2773
vn -0.6271 0.7789 0.0000
vn -0.6332 0.7226 -0.2773
vn -0.6469 0.5839 -0.4905
vn -0.6607 0.4148 -0.6256
vn -0.6706 0.2447 -0.7003
vn -0.6756 0.0806 -0.7328
vn -0.6756 -0.0806 -0.7328
vn -0.6706 -0.2447 -0.7003
vn -0.6607 -0.4148 -0.6256
vn -0.6469 -0.5839 -0.4905
vn -0.6332 -0.7226 -0.2773
vn -0.6271 -0.7789 -0.0000
vn -0.6332 -0.7226 0.2773
vn -0.6469 -0.5839 0.4905
vn -0.6607 -0.4148 0.6256
vn -0.6706 -0.2447 0.7003
vn -0.6756 -0.0806 0.7328
vn -0.8448 0.2957 0.4460
vn -0.7192 -0.6948 0.0000
vn -0.6272 0.2569 -0.7353
vn -0.6524 0.4188 0.6317
vn -0.7088 -0.6585 0.2527
vn -0.6134 0.0864 -0.7851
vn -0.6829 0.5593 0.4699
vn -0.6829 -0.5593 0.4699
vn -0.6134 -0.0864 -0.7851
vn -0.7088 0.6585 0.2527
vn -0.6524 -0.4188 0.6317
vn -0.6272 -0.2569 -0.7353
vn -0.7192 0.6948 0.0000
vn -0.6272 -0.2569 0.7353
vn -0.6524 -0.4188 -0.6317
vn -0.7088 0.6585 -0.2527
vn -0.6134 -0.0864 0.7851
vn -0.6829 -0.5593 -0.4699
vn -0.6829 0.5593 -0.4699
vn -0.6134 0.0864 0.7851
vn -0.7088 -0.6585 -0.2527
vn -0.6524 0.4188 -0.6317
vn -0.9814 -0.0210 -0.1909
vn -0.9814 -0.0634 -0.1813
vn -0.9814 -0.1061 -0.1601
vn -0.9814 -0.1471 -0.1235
vn -0.9814 -0.1793 -0.0688
vn -0.9814 -0.1921 0.0000
vn -0.9814 -0.1793 0.0688
vn -0.9814 -0.1471 0.1235
vn -0.9814 -0.1061 0.1601
vn -0.9814 -0.0634 0.1813
vn -0.9814 -0.0210 0.1909
vn -0.9814 0.0210 0.1909
vn -0.9814 0.0634 0.1813
vn -0.9814 0.1061 0.1601
vn -0.9814 0.1471 0.1235
vn -0.9814 0.1793 0.0688
vn -0.9814 0.1921 0.0000
vn -0.9814 0.1793 -0.0688
vn -0.9814 0.1471 -0.1235
vn -0.9814 0.1061 -0.1601
vn -0.9814 0.0634 -0.1813
vn -0.9814 0.0210 -0.1909
vn -1.0000 -0.0000 -0.0000
vn -0.8824 -0.4393 0.1686
vn -0.8148 0.0634 -0.5763
vn -0.8659 0.3830 0.3217
vn -0.8659 -0.3830 0.3217
vn -0.8148 -0.0634 -0.5763
vn -0.8824 0.4393 0.1686
vn -0.8448 -0.2957 0.4460
vn -0.8258 -0.1860 -0.5324
vn -0.8886 0.4587 0.0000
vn -0.8258 -0.1860 0.5324
vn -0.8448 -0.2957 -0.4460
vn -0.8824 0.4393 -0.1686
vn -0.8148 -0.0634 0.5763
vn -0.8659 -0.3830 -0.3217
vn -0.8659 0.3830 -0.3217
vn -0.8148 0.0634 0.5763
vn -0.8824 -0.4393 -0.1686
vn -0.8448 0.2957 -0.4460
vn -0.8258 0.1860 0.5324
vn -0.8886 -0.4587 0.0000
vn -0.8258 0.1860 -0.5324
usemtl None
s off
f 13/1/1 14/2/1 102/3/1 101/4/1
f 24/5/2 23/6/2 44/7/2 43/8/2 42/9/2 41/10/2 40/11/2 39/12/2 38/13/2 37/14/2 36/15/2 35/16/2 34/17/2 33/18/2 32/19/2 31/20/2 30/21/2 29/22/2 28/23/2 27/24/2 26/25/2 25/26/2
f 45/27/3 46/28/3 23/6/3 24/5/3
f 47/29/4 45/27/4 24/5/4 25/26/4
f 48/30/5 47/29/5 25/26/5 26/25/5
f 49/31/6 48/30/6 26/25/6 27/24/6
f 50/32/7 49/31/7 27/24/7 28/23/7
f 51/33/8 50/32/8 28/23/8 29/22/8
f 52/34/9 51/33/9 29/22/9 30/21/9
f 53/35/10 52/34/10 30/21/10 31/20/10
f 54/36/11 53/35/11 31/20/11 32/19/11
f 55/37/12 54/36/12 32/19/12 33/18/12
f 56/38/13 55/37/13 33/18/13 34/17/13
f 57/39/14 56/38/14 34/17/14 35/16/14
f 58/40/15 57/39/15 35/16/15 36/15/15
f 59/41/16 58/40/16 36/15/16 37/14/16
f 60/42/17 59/41/17 37/14/17 38/13/17
f 61/43/18 60/42/18 38/13/18 39/12/18
f 62/44/19 61/43/19 39/12/19 40/11/19
f 63/45/20 62/44/20 40/11/20 41/10/20
f 64/46/21 63/45/21 41/10/21 42/9/21
f 65/47/22 64/46/22 42/9/22 43/8/22
f 66/48/23 65/47/23 43/8/23 44/7/23
f 46/28/24 66/48/24 44/7/24 23/6/24
f 2/49/25 1/50/25 46/28/25 45/27/25
f 3/51/26 2/49/26 45/27/26 47/29/26
f 4/52/27 3/51/27 47/29/27 48/30/27
f 5/53/28 4/52/28 48/30/28 49/31/28
f 6/54/29 5/53/29 49/31/29 50/32/29
f 7/55/30 6/54/30 50/32/30 51/33/30
f 8/56/31 7/55/31 51/33/31 52/34/31
f 9/57/32 8/56/32 52/34/32 53/35/32
f 10/58/33 9/57/33 53/35/33 54/36/33
f 11/59/34 10/58/34 54/36/34 55/37/34
f 12/60/35 11/59/35 55/37/35 56/38/35
f 13/1/36 12/60/36 56/38/36 57/39/36
f 14/2/37 13/1/37 57/39/37 58/40/37
f 15/61/38 14/2/38 58/40/38 59/41/38
f 16/62/39 15/61/39 59/41/39 60/42/39
f 17/63/40 16/62/40 60/42/40 61/43/40
f 18/64/41 17/63/41 61/43/41 62/44/41
f 19/65/42 18/64/42 62/44/42 63/45/42
f 20/66/43 19/65/43 63/45/43 64/46/43
f 21/67/44 20/66/44 64/46/44 65/47/44
f 22/68/45 21/67/45 65/47/45 66/48/45
f 1/50/46 22/68/46 66/48/46 46/28/46
f 80/69/47 81/70/47 125/71/47 124/72/47
f 6/54/48 7/55/48 95/73/48 94/74/48
f 21/67/49 22/68/49 110/75/49 109/76/49
f 14/2/50 15/61/50 103/77/50 102/3/50
f 7/55/51 8/56/51 96/78/51 95/73/51
f 22/68/52 1/50/52 90/79/52 110/75/52
f 15/61/53 16/62/53 104/80/53 103/77/53
f 8/56/54 9/57/54 97/81/54 96/78/54
f 1/50/55 2/49/55 89/82/55 90/79/55
f 16/62/56 17/63/56 105/83/56 104/80/56
f 9/57/57 10/58/57 98/84/57 97/81/57
f 2/49/58 3/51/58 91/85/58 89/82/58
f 17/63/59 18/64/59 106/86/59 105/83/59
f 10/58/60 11/59/60 99/87/60 98/84/60
f 3/51/61 4/52/61 92/88/61 91/85/61
f 18/64/62 19/65/62 107/89/62 106/86/62
f 11/59/63 12/60/63 100/90/63 99/87/63
f 4/52/64 5/53/64 93/91/64 92/88/64
f 19/65/65 20/66/65 108/92/65 107/89/65
f 12/60/66 13/1/66 101/4/66 100/90/66
f 5/53/67 6/54/67 94/74/67 93/91/67
f 20/66/68 21/67/68 109/76/68 108/92/68
f 67/93/69 68/94/69 90/79/69 89/82/69
f 69/95/70 67/93/70 89/82/70 91/85/70
f 70/96/71 69/95/71 91/85/71 92/88/71
f 71/97/72 70/96/72 92/88/72 93/91/72
f 72/98/73 71/97/73 93/91/73 94/74/73
f 73/99/74 72/98/74 94/74/74 95/73/74
f 74/100/75 73/99/75 95/73/75 96/78/75
f 75/101/76 74/100/76 96/78/76 97/81/76
f 76/102/77 75/101/77 97/81/77 98/84/77
f 77/103/78 76/102/78 98/84/78 99/87/78
f 78/104/79 77/103/79 99/87/79 100/90/79
f 79/105/80 78/104/80 100/90/80 101/4/80
f 80/69/81 79/105/81 101/4/81 102/3/81
f 81/70/82 80/69/82 102/3/82 103/77/82
f 82/106/83 81/70/83 103/77/83 104/80/83
f 83/107/84 82/106/84 104/80/84 105/83/84
f 84/108/85 83/107/85 105/83/85 106/86/85
f 85/109/86 84/108/86 106/86/86 107/89/86
f 86/110/87 85/109/87 107/89/87 108/92/87
f 87/111/88 86/110/88 108/92/88 109/76/88
f 88/112/89 87/111/89 109/76/89 110/75/89
f 68/94/90 88/112/90 110/75/90 90/79/90
f 111/113/91 113/114/91 114/115/91 115/116/91 116/117/91 117/118/91 118/119/91 119/120/91 120/121/91 121/122/91 122/123/91 123/124/91 124/72/91 125/71/91 126/125/91 127/126/91 128/127/91 129/128/91 130/129/91 131/130/91 132/131/91 112/132/91
f 73/99/92 74/100/92 118/119/92 117/118/92
f 88/112/93 68/94/93 112/132/93 132/131/93
f 81/70/94 82/106/94 126/125/94 125/71/94
f 74/100/95 75/101/95 119/120/95 118/119/95
f 68/94/96 67/93/96 111/113/96 112/132/96
f 82/106/97 83/107/97 127/126/97 126/125/97
f 75/101/98 76/102/98 120/121/98 119/120/98
f 67/93/99 69/95/99 113/114/99 111/113/99
f 83/107/100 84/108/100 128/127/100 127/126/100
f 76/102/101 77/103/101 121/122/101 120/121/101
f 69/95/102 70/96/102 114/115/102 113/114/102
f 84/108/103 85/109/103 129/128/103 128/127/103
f 77/103/104 78/104/104 122/123/104 121/122/104
f 70/96/105 71/97/105 115/116/105 114/115/105
f 85/109/106 86/110/106 130/129/106 129/128/106
f 78/104/107 79/105/107 123/124/107 122/123/107
f 71/97/108 72/98/108 116/117/108 115/116/108
f 86/110/109 87/111/109 131/130/109 130/129/109
f 79/105/110 80/69/110 124/72/110 123/124/110
f 72/98/111 73/99/111 117/118/111 116/117/111
f 87/111/112 88/112/112 132/131/112 131/130/112
