# Blender v2.80 (sub 75) OBJ File: 'Rock1.blend'
# www.blender.org
mtllib Rock1.mtl
o Sphere_Sphere.001
v 0.520774 -0.473978 1.181167
v 0.667181 -0.096902 1.273144
v 0.834578 -0.038943 0.463175
v 0.668712 -0.608375 0.164205
v 0.868462 -0.295227 -0.404720
v 0.252668 -0.787775 -0.201001
v 0.656315 -0.209556 -1.483562
v -0.270770 -0.423638 -1.651138
v -0.006717 -0.274587 -2.064521
v 0.314834 -0.430290 -2.091836
v 0.120785 -0.657346 -1.585720
v -0.027040 -0.544580 1.676406
v -0.592116 -0.417116 1.492687
v -0.166660 -0.684050 1.090872
v -0.716259 -0.165947 -0.444258
v -0.831668 -0.158763 0.816160
v 0.763208 0.022404 0.433518
v 0.513218 -0.011015 -1.178604
v -0.034644 -0.022316 -1.520164
v -0.721708 0.020914 1.009338
v -0.622743 -0.003893 -0.312371
v 0.658844 -0.090227 1.280531
v -0.406548 -0.296427 1.991840
v -0.252727 -0.371758 1.932153
v -0.369740 0.039892 1.832544
v 0.529058 0.037314 1.304708
vt 0.304171 0.552305
vt 0.240311 0.452184
vt 0.300560 0.274553
vt 0.390005 0.483057
vt 0.337702 0.594500
vt 0.771704 0.506157
vt 0.750654 0.476374
vt 0.454818 0.460423
vt 0.188811 0.503714
vt 0.920135 0.392908
vt 0.904269 0.303035
vt 0.609824 0.271252
vt 0.312484 0.168445
vt 0.330954 0.622313
vt 0.677121 0.276703
vt 0.580132 0.249970
vt 0.481697 0.587033
vt 0.475245 0.531189
vt 0.547791 0.486183
vt 0.637399 0.532278
vt 0.600667 0.378752
vt 0.729861 0.519640
vt 0.661054 0.363970
vt 0.673047 0.331509
vt 0.917335 0.397141
vt 0.806653 0.482540
vt 0.394917 0.506157
vt 0.186233 0.476374
vn -0.3915 -0.7668 -0.5087
vn 0.7589 0.6391 -0.1247
vn 0.9178 -0.3628 0.1615
vn 0.6133 -0.7739 -0.1579
vn 0.2833 0.8558 -0.4328
vn 0.2679 -0.9495 0.1633
vn -0.8236 0.5621 -0.0753
vn -0.5484 -0.8342 -0.0585
vn -0.7281 0.5847 -0.3577
vn 0.4783 0.3326 0.8128
vn -0.0085 0.9998 -0.0194
vn -0.3036 -0.9015 0.3083
vn -0.9163 0.1755 0.3599
vn 0.6724 0.7182 0.1790
vn 0.6285 -0.3451 0.6970
usemtl None
s off
f 9/1/1 10/2/1 11/3/1 8/4/1
f 18/5/2 17/6/2 3/7/2 5/8/2 7/9/2
f 2/10/3 1/11/3 4/12/3 5/8/3 3/7/3
f 11/3/4 10/2/4 7/9/4 5/8/4 4/12/4 6/13/4
f 18/5/5 7/9/5 10/2/5 9/1/5 19/14/5
f 1/11/6 12/15/6 14/16/6 6/13/6 4/12/6
f 21/17/7 15/18/7 16/19/7 20/20/7
f 8/4/8 11/3/8 6/13/8 14/16/8 13/21/8 16/19/8 15/18/8
f 8/4/9 15/18/9 21/17/9 19/14/9 9/1/9
f 25/22/10 23/23/10 24/24/10 22/25/10 26/26/10
f 21/17/11 20/20/11 25/22/11 26/26/11 17/27/11 18/5/11 19/14/11
f 12/15/12 24/24/12 23/23/12 13/21/12 14/16/12
f 20/20/13 16/19/13 13/21/13 23/23/13 25/22/13
f 2/10/14 3/28/14 17/27/14 26/26/14 22/25/14
f 2/10/15 22/25/15 24/24/15 12/15/15 1/11/15
