# Blender v2.80 (sub 75) OBJ File: 'table.blend'
# www.blender.org
mtllib table.mtl
o Cube_Cube.001
v 0.326725 -0.113526 1.000000
v 0.326725 0.113526 1.000000
v 0.326725 -0.113526 -1.000000
v 0.326725 0.113526 -1.000000
v 0.653450 -0.113526 1.000000
v 0.653450 0.113526 1.000000
v 0.653450 -0.113526 -1.000000
v 0.653450 0.113526 -1.000000
v 0.334188 -0.116120 2.000000
v 0.334188 0.116120 2.000000
v 0.668377 0.116120 2.000000
v 0.668377 -0.116120 2.000000
v 0.326725 0.113526 -2.000000
v 0.326725 -0.113526 -2.000000
v 0.653450 -0.113526 -2.000000
v 0.653450 0.113526 -2.000000
v 0.000000 -0.113526 -1.000000
v 0.000000 -0.113526 1.000000
v 0.000000 0.113526 1.000000
v 0.000000 0.113526 -1.000000
v 0.000000 -0.116120 2.000000
v 0.000000 0.116120 2.000000
v 0.000000 0.113526 -2.000000
v 0.000000 -0.113526 -2.000000
v -0.326725 -0.113526 -1.000000
v -0.326725 -0.113526 1.000000
v -0.326725 0.113526 1.000000
v -0.326725 0.113526 -1.000000
v -0.334188 -0.116120 2.000000
v -0.334188 0.116120 2.000000
v -0.326725 0.113526 -2.000000
v -0.326725 -0.113526 -2.000000
v -0.653450 -0.113526 -1.000000
v -0.653450 -0.113526 1.000000
v -0.653450 0.113526 1.000000
v -0.653450 0.113526 -1.000000
v -0.668377 -0.116120 2.000000
v -0.668377 0.116120 2.000000
v -0.653450 0.113526 -2.000000
v -0.653450 -0.113526 -2.000000
v 0.334188 -0.116120 3.000000
v 0.334188 0.116120 3.000000
v 0.668377 0.116120 3.000000
v 0.668377 -0.116120 3.000000
v 0.000000 -0.116120 3.000000
v 0.000000 0.116120 3.000000
v -0.334188 -0.116120 3.000000
v -0.334188 0.116120 3.000000
v -0.668377 -0.116120 3.000000
v -0.668377 0.116120 3.000000
v 0.000000 -0.113526 -3.000000
v 0.326725 -0.113526 -3.000000
v 0.326725 0.113526 -3.000000
v 0.653450 -0.113526 -3.000000
v 0.653450 0.113526 -3.000000
v 0.000000 0.113526 -3.000000
v -0.326725 0.113526 -3.000000
v -0.653450 0.113526 -3.000000
v -0.326725 -0.113526 -3.000000
v -0.653450 -0.113526 -3.000000
v 0.987429 0.113526 -1.000997
v 0.987429 -0.113526 -1.000997
v 0.987429 -0.113526 0.999003
v 0.987429 0.113526 0.999003
v 1.002356 0.116120 1.999003
v 1.002356 -0.116120 1.999003
v 0.987429 0.113526 -2.000997
v 0.987429 -0.113526 -2.000997
v 1.002356 -0.116120 2.999003
v 1.002356 0.116120 2.999003
v 0.987429 0.113526 -3.000997
v 0.987429 -0.113526 -3.000997
v 0.320533 -0.754995 -0.325342
v 0.216167 -0.754995 -0.325342
v 0.216167 -0.754995 0.313522
v 0.320533 -0.754995 0.313522
v 0.218551 -0.756035 0.632954
v 0.325301 -0.756035 0.632954
v 0.320533 -0.754995 -0.644775
v 0.216167 -0.754995 -0.644775
v 0.111800 -0.754995 0.313522
v 0.111800 -0.756035 0.632954
v 0.111800 -0.754995 -0.644775
v 0.111800 -0.754995 -0.325342
v 0.007434 -0.754995 0.313522
v 0.005050 -0.756035 0.632954
v 0.007434 -0.754995 -0.644775
v 0.007434 -0.754995 -0.325342
v 0.111800 -1.156263 -0.325342
v 0.111800 -1.156263 -0.644775
v 0.007434 -1.156263 -0.644775
v 0.007434 -1.156263 -0.325342
v 0.111800 -1.156262 0.312694
v 0.007434 -1.156262 0.312694
v 0.111800 -1.157303 0.632126
v 0.005050 -1.157303 0.632126
v 0.320533 -1.156262 0.312694
v 0.216167 -1.156262 0.312694
v 0.325301 -1.157303 0.632126
v 0.218551 -1.157303 0.632126
v 0.320533 -1.156263 -0.644775
v 0.216167 -1.156263 -0.644775
v 0.216167 -1.156263 -0.325342
v 0.320533 -1.156263 -0.325342
v 0.320630 -1.654872 -0.326763
v 0.216264 -1.654872 -0.326763
v 0.320630 -1.654872 -0.646196
v 0.216264 -1.654872 -0.646196
v 0.320630 -1.253604 -0.646196
v 0.216264 -1.253604 -0.326763
v 0.111897 -1.654872 -0.646196
v 0.111897 -1.654872 -0.326763
v 0.007531 -1.654872 -0.646196
v 0.007531 -1.654872 -0.326763
v 0.111897 -1.253604 -0.326763
v 0.216264 -1.654870 0.310444
v 0.320630 -1.654870 0.310444
v 0.218648 -1.655910 0.629877
v 0.325398 -1.655910 0.629877
v 0.111897 -1.654870 0.310444
v 0.111897 -1.655910 0.629877
v 0.007531 -1.654870 0.310444
v 0.005147 -1.655910 0.629877
v 0.320630 -1.253602 0.311273
v 0.111897 -1.253602 0.311273
v 0.111897 -1.254643 0.630705
v 0.325398 -1.254643 0.630705
v 0.810974 -2.654058 -1.328224
v 0.379088 -2.654058 -1.328224
v 0.810974 -2.654058 -2.650087
v 0.379088 -2.654058 -2.650087
v -0.052797 -2.654058 -2.650087
v -0.052797 -2.654058 -1.328224
v -0.484683 -2.654058 -2.650087
v -0.484683 -2.654058 -1.328224
v 0.379088 -2.654047 1.308646
v 0.810974 -2.654047 1.308646
v 0.388954 -2.658354 2.630509
v 0.830705 -2.658354 2.630509
v -0.052797 -2.654047 1.308646
v -0.052797 -2.658354 2.630509
v -0.484683 -2.654047 1.308646
v -0.494549 -2.658354 2.630509
v 0.111897 -1.253604 -0.646196
v 0.007531 -1.253604 -0.646196
v 0.007531 -1.253604 -0.326763
v 0.007531 -1.253602 0.311273
v 0.005147 -1.254643 0.630705
v 0.216264 -1.253602 0.311273
v 0.218648 -1.254643 0.630705
v 0.216264 -1.253604 -0.646196
v 0.320630 -1.253604 -0.326763
v 0.653450 -0.113526 -3.000000
vt 0.875000 0.750000
vt 0.875000 0.750000
vt 0.875000 0.750000
vt 0.875000 0.750000
vt 0.875000 0.750000
vt 0.875000 0.750000
vt 0.875000 0.750000
vt 0.625000 0.500000
vt 0.625000 0.750000
vt 0.625000 0.750000
vt 0.625000 0.500000
vt 0.125000 0.500000
vt 0.125000 0.500000
vt 0.125000 0.500000
vt 0.125000 0.500000
vt 0.375000 0.500000
vt 0.375000 0.750000
vt 0.125000 0.750000
vt 0.875000 0.500000
vt 0.875000 0.750000
vt 0.625000 0.750000
vt 0.625000 0.750000
vt 0.625000 0.750000
vt 0.625000 0.750000
vt 0.375000 0.500000
vt 0.125000 0.500000
vt 0.375000 0.500000
vt 0.375000 0.750000
vt 0.375000 0.750000
vt 0.375000 0.750000
vt 0.625000 0.500000
vt 0.875000 0.500000
vt 0.125000 0.750000
vt 0.125000 0.750000
vt 0.125000 0.750000
vt 0.125000 0.750000
vt 0.875000 0.750000
vt 0.875000 0.500000
vt 0.875000 0.500000
vt 0.875000 0.500000
vt 0.875000 0.500000
vt 0.125000 0.750000
vt 0.875000 0.500000
vt 0.875000 0.500000
vt 0.125000 0.750000
vt 0.125000 0.750000
vt 0.375000 0.750000
vt 0.125000 0.750000
vt 0.875000 0.750000
vt 0.875000 0.750000
vt 0.875000 0.500000
vt 0.875000 0.500000
vt 0.125000 0.750000
vt 0.125000 0.500000
vt 0.875000 0.500000
vt 0.375000 0.000000
vt 0.625000 0.000000
vt 0.625000 0.250000
vt 0.375000 0.250000
vt 0.625000 0.250000
vt 0.375000 0.250000
vt 0.375000 0.000000
vt 0.625000 0.000000
vt 0.125000 0.750000
vt 0.125000 0.500000
vt 0.125000 0.500000
vt 0.125000 0.500000
vt 0.125000 0.500000
vt 0.125000 0.500000
vt 0.375000 1.000000
vt 0.625000 1.000000
vt 0.625000 1.000000
vt 0.375000 1.000000
vt 0.625000 1.000000
vt 0.375000 1.000000
vt 0.625000 1.000000
vt 0.375000 1.000000
vt 0.125000 0.750000
vt 0.375000 0.000000
vt 0.625000 0.000000
vt 0.375000 0.750000
vt 0.875000 0.750000
vt 0.375000 0.250000
vt 0.625000 0.250000
vt 0.625000 0.500000
vt 0.375000 0.250000
vt 0.625000 0.250000
vt 0.375000 0.250000
vt 0.625000 0.250000
vt 0.375000 0.250000
vt 0.625000 0.250000
vt 0.125000 0.500000
vt 0.375000 0.500000
vt 0.875000 0.500000
vt 0.375000 0.500000
vt 0.625000 0.500000
vt 0.375000 0.500000
vt 0.625000 0.500000
vt 0.125000 0.750000
vt 0.125000 0.750000
vt 0.125000 0.750000
vt 0.125000 0.500000
vt 0.375000 0.500000
vt 0.375000 0.500000
vt 0.125000 0.750000
vt 0.375000 0.750000
vt 0.375000 0.750000
vt 0.125000 0.500000
vt 0.125000 0.750000
vt 0.125000 0.500000
vt 0.125000 0.500000
vt 0.125000 0.750000
vt 0.125000 0.500000
vt 0.125000 0.500000
vt 0.125000 0.750000
vt 0.125000 0.750000
vt 0.125000 0.750000
vt 0.125000 0.750000
vt 0.125000 0.750000
vt 0.125000 0.750000
vt 0.125000 0.750000
vt 0.125000 0.750000
vt 0.375000 0.750000
vt 0.125000 0.750000
vt 0.125000 0.750000
vt 0.375000 0.750000
vt 0.125000 0.500000
vt 0.125000 0.500000
vt 0.125000 0.500000
vt 0.125000 0.500000
vt 0.125000 0.750000
vt 0.125000 0.750000
vt 0.125000 0.500000
vt 0.375000 0.500000
vt 0.375000 0.500000
vt 0.125000 0.500000
vt 0.125000 0.750000
vt 0.125000 0.750000
vt 0.375000 0.750000
vt 0.375000 0.750000
vt 0.375000 0.750000
vt 0.375000 0.500000
vt 0.375000 0.500000
vt 0.125000 0.500000
vt 0.125000 0.500000
vt 0.125000 0.500000
vt 0.125000 0.500000
vt 0.125000 0.750000
vt 0.125000 0.750000
vt 0.375000 0.500000
vt 0.125000 0.500000
vt 0.125000 0.500000
vt 0.125000 0.500000
vt 0.125000 0.500000
vt 0.375000 0.750000
vt 0.125000 0.750000
vt 0.125000 0.750000
vt 0.125000 0.750000
vt 0.125000 0.750000
vt 0.125000 0.500000
vt 0.125000 0.500000
vt 0.375000 0.500000
vt 0.125000 0.750000
vt 0.125000 0.750000
vt 0.125000 0.750000
vt 0.125000 0.500000
vt 0.125000 0.500000
vt 0.375000 0.750000
vt 0.375000 0.750000
vt 0.375000 0.750000
vt 0.125000 0.500000
vt 0.125000 0.500000
vt 0.125000 0.750000
vt 0.375000 0.500000
vt 0.125000 0.500000
vt 0.125000 0.500000
vt 0.375000 0.500000
vt 0.125000 0.500000
vt 0.125000 0.500000
vt 0.125000 0.750000
vt 0.125000 0.750000
vt 0.125000 0.750000
vt 0.125000 0.750000
vt 0.375000 0.750000
vt 0.125000 0.750000
vt 0.125000 0.750000
vn 0.0000 1.0000 -0.0026
vn 0.0000 1.0000 0.0000
vn 0.0000 -1.0000 0.0000
vn -0.0000 -1.0000 -0.0026
vn -1.0000 0.0000 0.0000
vn -0.9999 0.0000 -0.0149
vn 0.0000 0.0000 1.0000
vn 0.0000 0.0000 -1.0000
vn 1.0000 0.0000 0.0000
vn 0.9999 0.0000 -0.0149
vn -0.0030 0.0000 -1.0000
vn 0.0030 0.0000 1.0000
vn -0.8903 -0.4552 -0.0079
vn 0.0000 -0.9057 0.4240
vn 0.0000 0.7247 0.6891
vn 0.8876 -0.4606 0.0000
vn 0.9852 0.1712 0.0005
vn 0.8938 -0.4482 -0.0146
vn -0.9855 0.1698 0.0000
vn 0.0000 0.7307 -0.6827
vn -0.8869 -0.4620 0.0000
vn -0.9868 0.1617 0.0078
vn 0.9851 0.1717 0.0000
vn 0.0000 -0.9039 -0.4278
vn 0.0000 0.0146 -0.9999
vn -1.0000 -0.0009 -0.0075
vn 0.0000 -0.0146 0.9999
vn -1.0000 -0.0010 0.0000
vn 0.9999 0.0012 -0.0149
vn 1.0000 0.0010 0.0000
vn 0.0000 1.0000 0.0033
vn 0.0000 -0.0021 1.0000
vn -1.0000 0.0000 -0.0075
vn 0.0000 0.0021 -1.0000
vn -1.0000 -0.0000 0.0075
vn -0.8991 0.4376 -0.0053
vn 0.9866 -0.1632 -0.0005
vn 0.9024 0.4308 -0.0121
vn 0.0000 0.8949 -0.4462
vn 0.0000 -1.0000 -0.0033
vn 0.0000 0.8940 0.4480
vn 0.0000 -0.7079 0.7063
vn 0.9867 -0.1626 0.0000
vn 0.0000 -0.7068 -0.7075
vn -0.8971 0.4419 0.0000
vn -0.9870 -0.1608 0.0000
vn 0.8977 0.4406 0.0000
vn -0.9880 -0.1541 0.0069
usemtl None
s off
f 10/1/1 2/2/1 19/3/1 22/4/1
f 22/4/2 30/5/2 48/6/2 46/7/2
f 8/8/2 6/9/2 64/10/2 61/11/2
f 14/12/3 3/13/3 17/14/3 24/15/3
f 3/13/3 7/16/3 5/17/3 1/18/3
f 8/8/2 4/19/2 2/2/2 6/9/2
f 10/1/2 22/4/2 46/7/2 42/20/2
f 6/9/1 2/2/1 10/1/1 11/21/1
f 11/21/2 43/22/2 70/23/2 65/24/2
f 15/25/3 14/12/3 52/26/3 54/27/3
f 12/28/4 5/17/4 63/29/4 66/30/4
f 4/19/2 8/8/2 16/31/2 13/32/2
f 37/33/3 29/34/3 47/35/3 49/36/3
f 22/4/1 19/3/1 27/37/1 30/5/1
f 20/38/2 23/39/2 31/40/2 28/41/2
f 4/19/2 13/32/2 23/39/2 20/38/2
f 2/2/2 4/19/2 20/38/2 19/3/2
f 3/13/3 1/18/3 18/42/3 17/14/3
f 31/40/2 23/39/2 56/43/2 57/44/2
f 1/18/4 9/45/4 21/46/4 18/42/4
f 9/45/3 12/28/3 44/47/3 41/48/3
f 30/5/1 27/37/1 35/49/1 38/50/1
f 28/41/2 31/40/2 39/51/2 36/52/2
f 19/3/2 20/38/2 28/41/2 27/37/2
f 17/14/3 18/42/3 26/53/3 25/54/3
f 23/39/2 13/32/2 53/55/2 56/43/2
f 34/56/5 35/57/5 36/58/5 33/59/5
f 33/59/5 36/58/5 39/60/5 40/61/5
f 35/57/6 34/56/6 37/62/6 38/63/6
f 27/37/2 28/41/2 36/52/2 35/49/2
f 25/54/3 26/53/3 34/64/3 33/65/3
f 32/66/3 25/54/3 33/65/3 40/67/3
f 32/66/3 40/67/3 60/68/3 59/69/3
f 26/53/4 29/34/4 37/33/4 34/64/4
f 41/70/7 42/71/7 46/72/7 45/73/7
f 44/47/7 43/22/7 42/71/7 41/70/7
f 45/73/7 46/72/7 48/74/7 47/75/7
f 47/75/7 48/74/7 50/76/7 49/77/7
f 11/21/2 10/1/2 42/20/2 43/22/2
f 29/34/3 21/46/3 45/78/3 47/35/3
f 21/46/3 9/45/3 41/48/3 45/78/3
f 38/63/5 37/62/5 49/79/5 50/80/5
f 44/47/3 12/28/3 66/30/3 69/81/3
f 30/5/2 38/50/2 50/82/2 48/6/2
f 52/83/8 53/84/8 55/85/8 54/27/8
f 53/84/8 52/83/8 51/86/8 56/87/8
f 56/87/8 51/86/8 59/88/8 57/89/8
f 57/89/8 59/88/8 60/90/8 58/91/8
f 14/12/3 24/15/3 51/92/3 52/26/3
f 24/15/3 32/66/3 59/69/3 51/92/3
f 13/32/2 16/31/2 55/85/2 53/55/2
f 40/61/5 39/60/5 58/91/5 60/90/5
f 5/17/3 7/16/3 62/93/3 63/29/3
f 39/51/2 31/40/2 57/44/2 58/94/2
f 62/93/9 61/11/9 64/10/9 63/29/9
f 63/29/10 64/10/10 65/24/10 66/30/10
f 61/11/9 62/93/9 68/95/9 67/96/9
f 66/30/9 65/24/9 70/23/9 69/81/9
f 67/96/9 68/95/9 72/97/9 71/98/9
f 54/27/11 55/85/11 71/98/11 72/97/11
f 55/85/2 16/31/2 67/96/2 71/98/2
f 6/9/1 11/21/1 65/24/1 64/10/1
f 43/22/12 44/47/12 69/81/12 70/23/12
f 7/16/3 15/25/3 68/95/3 62/93/3
f 15/25/3 54/27/3 72/97/3 68/95/3
f 16/31/2 8/8/2 61/11/2 67/96/2
f 29/34/13 26/53/13 85/99/13 86/100/13
f 21/46/14 29/34/14 86/100/14 82/101/14
f 7/16/15 3/13/15 74/102/15 73/103/15
f 15/25/16 7/16/16 73/103/16 79/104/16
f 18/42/17 21/46/17 82/101/17 81/105/17
f 5/17/18 12/28/18 78/106/18 76/107/18
f 3/13/19 14/12/19 80/108/19 74/102/19
f 1/18/20 5/17/20 76/107/20 75/109/20
f 25/54/21 32/66/21 87/110/21 88/111/21
f 9/45/22 1/18/22 75/109/22 77/112/22
f 24/15/23 17/14/23 84/113/23 83/114/23
f 32/66/24 24/15/24 83/114/24 87/110/24
f 12/28/14 9/45/14 77/112/14 78/106/14
f 14/12/24 15/25/24 79/104/24 80/108/24
f 17/14/15 25/54/15 88/111/15 84/113/15
f 26/53/20 18/42/20 81/105/20 85/99/20
f 98/115/25 149/116/25 125/117/25 93/118/25
f 96/119/26 94/120/26 147/121/26 148/122/26
f 99/123/27 100/124/27 150/125/27 127/126/27
f 92/127/28 91/128/28 145/129/28 146/130/28
f 95/131/27 96/119/27 148/122/27 126/132/27
f 102/133/25 101/134/25 109/135/25 151/136/25
f 149/116/28 98/115/28 103/137/28 110/138/28
f 98/115/2 97/139/2 104/140/2 103/137/2
f 97/139/29 99/123/29 127/126/29 124/141/29
f 101/134/30 104/142/30 152/143/30 109/135/30
f 100/124/31 98/115/31 93/118/31 95/131/31
f 91/128/25 90/144/25 144/145/25 145/129/25
f 84/113/7 88/111/7 92/127/7 89/146/7
f 88/111/5 87/110/5 91/128/5 92/127/5
f 87/110/8 83/114/8 90/144/8 91/128/8
f 83/114/9 84/113/9 89/146/9 90/144/9
f 82/101/32 86/100/32 96/119/32 95/131/32
f 86/100/33 85/99/33 94/120/33 96/119/33
f 81/105/9 82/101/9 95/131/9 93/118/9
f 85/99/34 81/105/34 93/118/34 94/120/34
f 78/106/32 77/112/32 100/124/32 99/123/32
f 77/112/35 75/109/35 98/115/35 100/124/35
f 76/107/10 78/106/10 99/123/10 97/139/10
f 75/109/34 76/107/34 97/139/34 98/115/34
f 74/102/5 80/108/5 102/133/5 103/147/5
f 79/104/9 73/103/9 104/142/9 101/134/9
f 73/103/7 74/102/7 103/147/7 104/142/7
f 80/108/8 79/104/8 101/134/8 102/133/8
f 147/121/34 125/117/34 120/148/34 122/149/34
f 151/136/8 109/135/8 107/150/8 108/151/8
f 144/145/9 115/152/9 112/153/9 111/154/9
f 149/116/34 124/141/34 117/155/34 116/156/34
f 123/157/36 122/149/36 142/158/36 143/159/36
f 152/143/7 110/160/7 106/161/7 105/162/7
f 109/135/9 152/143/9 105/162/9 107/150/9
f 110/160/5 151/136/5 108/151/5 106/161/5
f 120/148/37 121/163/37 141/164/37 140/165/37
f 145/129/8 144/145/8 111/154/8 113/166/8
f 146/130/5 145/129/5 113/166/5 114/167/5
f 115/152/7 146/130/7 114/167/7 112/153/7
f 117/155/38 119/168/38 139/169/38 137/170/38
f 113/166/39 111/154/39 132/171/39 134/172/39
f 125/117/9 126/132/9 121/163/9 120/148/9
f 124/141/10 127/126/10 119/168/10 117/155/10
f 148/122/33 147/121/33 122/149/33 123/157/33
f 150/125/35 149/116/35 116/156/35 118/173/35
f 127/126/32 150/125/32 118/173/32 119/168/32
f 126/132/32 148/122/32 123/157/32 121/163/32
f 128/174/3 129/175/3 131/176/3 130/177/3
f 132/171/3 133/178/3 135/179/3 134/172/3
f 136/180/40 137/170/40 139/169/40 138/181/40
f 140/165/40 141/164/40 143/159/40 142/158/40
f 121/163/41 123/157/41 143/159/41 141/164/41
f 105/162/42 106/161/42 129/175/42 128/174/42
f 111/154/43 112/153/43 133/178/43 132/171/43
f 122/149/44 120/148/44 140/165/44 142/158/44
f 108/151/39 107/150/39 130/177/39 131/176/39
f 116/156/44 117/155/44 137/170/44 136/180/44
f 114/167/45 113/166/45 134/172/45 135/179/45
f 106/161/46 108/151/46 131/176/46 129/175/46
f 119/168/41 118/173/41 138/181/41 139/169/41
f 112/153/42 114/167/42 135/179/42 133/178/42
f 107/150/47 105/162/47 128/174/47 130/177/47
f 118/173/48 116/156/48 136/180/48 138/181/48
f 147/121/28 94/120/28 92/182/28 146/183/28
f 124/141/3 149/116/3 110/138/3 152/184/3
f 94/120/2 93/118/2 89/185/2 92/182/2
f 125/117/3 147/121/3 146/183/3 115/186/3
f 97/139/30 124/141/30 152/184/30 104/140/30
f 93/118/30 125/117/30 115/186/30 89/185/30
f 103/147/2 102/133/2 90/144/2 89/146/2
f 102/133/25 151/136/25 144/145/25 90/144/25
f 150/125/27 100/124/27 95/131/27 126/132/27
f 149/116/40 150/125/40 126/132/40 125/117/40
f 151/136/3 110/160/3 115/152/3 144/145/3
f 110/138/27 103/137/27 89/185/27 115/186/27
l 54 153
