# Blender v2.80 (sub 75) OBJ File: 'OutsideBench.blend'
# www.blender.org
mtllib OutsideBench.mtl
o Cube_Cube.001
v -1.000000 -0.060000 2.700000
v 1.000000 -0.060000 2.700000
v 1.000000 -0.060000 -2.715000
v -1.000000 -0.060000 -2.715000
v -1.000000 -0.060000 2.429250
v 1.000000 -0.060000 2.429250
v 1.000000 -0.060000 -2.444250
v -1.000000 -0.060000 -2.444250
v -1.000000 -1.060000 2.671048
v -1.000000 -1.060000 2.941798
v 1.000000 -1.060000 2.941798
v 1.000000 -1.060000 -2.707239
v 1.000000 -1.060000 -2.977989
v -1.000000 -1.060000 -2.977989
v 1.000000 -1.060000 2.671048
v -1.000000 -1.060000 -2.707239
v 0.000000 -0.060000 2.700000
v 0.000000 -0.060000 -2.715000
v 0.000000 -0.060000 2.429250
v 0.000000 -0.060000 -2.444250
v 0.000000 -0.368555 2.777460
v 0.000000 -0.368555 -2.774838
v 0.000000 -0.368555 2.506711
v 0.000000 -0.368555 -2.504088
v -0.500000 -0.060000 2.700000
v -0.500000 -0.060000 -2.715000
v -0.500000 -0.060000 2.429250
v -0.500000 -0.060000 -2.444250
v -0.500000 -1.045265 2.967946
v -0.500000 -1.045265 -2.989789
v -0.500000 -1.045265 2.697196
v -0.500000 -1.045265 -2.719039
v 0.500000 -0.060000 2.700000
v 0.500000 -0.060000 -2.715000
v 0.500000 -0.060000 2.429250
v 0.500000 -0.060000 -2.444250
v 0.500000 -1.045265 2.967946
v 0.500000 -1.045265 -2.989789
v 0.500000 -1.045265 2.697196
v 0.500000 -1.045265 -2.719039
v -1.015475 -0.060433 2.697356
v -1.015475 -0.060433 2.997356
v -1.015475 0.059567 2.997356
v -1.015475 0.059567 -2.717644
v -1.015475 0.059567 -3.002644
v -1.015475 -0.060433 -3.002644
v -0.515475 -0.060433 -3.002644
v -0.515475 0.059567 2.997356
v -1.015475 -0.060433 2.426606
v -1.015475 0.059567 2.697356
v -0.515475 -0.060433 2.697356
v -1.015475 0.059567 -2.446894
v -1.015475 -0.060433 -2.717644
v -0.515475 -0.060433 -2.717644
v -1.015475 -0.060433 -2.446894
v -1.015475 -0.060433 -0.010144
v -1.015475 0.059567 2.426606
v -1.015475 0.059567 -0.010144
v -0.515475 -0.060433 -0.010144
v -0.515475 -0.060433 2.426606
v -0.515475 -0.060433 -2.446894
v -0.515475 0.059567 -3.002644
v -0.015475 0.059567 -3.002644
v -0.515475 -0.060433 2.997356
v -0.015475 -0.060433 2.997356
v -0.515475 0.059567 2.697356
v -0.015475 0.059567 2.697356
v -0.515475 0.059567 -2.717644
v -0.015475 0.059567 -2.717644
v -0.515475 0.059567 -0.010144
v -0.015475 0.059567 -0.010144
v -0.515475 0.059567 2.426606
v -0.015475 0.059567 2.426606
v -0.515475 0.059567 -2.446894
v -0.015475 0.059567 -2.446894
v -0.015475 -0.060433 -0.010144
v -0.015475 -0.060433 2.426606
v -0.015475 -0.060433 -2.446894
v -0.015475 -0.060433 -3.002644
v -0.015475 -0.060433 -2.717644
v -0.015475 0.059567 2.997356
v -0.015475 -0.060433 2.697356
v 0.513232 0.059681 -3.000000
v 1.013232 0.059681 -3.000000
v 1.013232 -0.060319 -3.000000
v 1.013232 -0.060319 -2.715000
v 1.013232 0.059681 2.700000
v 1.013232 0.059681 3.000000
v 1.013232 -0.060319 3.000000
v 0.513232 -0.060319 3.000000
v 1.013232 -0.060319 2.700000
v 1.013232 0.059681 2.429250
v 0.513232 0.059681 2.700000
v 1.013232 -0.060319 -2.444250
v 1.013232 0.059681 -2.715000
v 0.513232 0.059681 -2.715000
v 1.013232 0.059681 -2.444250
v 1.013232 0.059681 -0.007500
v 1.013232 -0.060319 2.429250
v 1.013232 -0.060319 -0.007500
v 0.513232 0.059681 -0.007500
v 0.513232 0.059681 2.429250
v 0.513232 0.059681 -2.444250
v 0.513232 -0.060319 -3.000000
v 0.013232 -0.060319 -3.000000
v 0.513232 0.059681 3.000000
v 0.013232 0.059681 3.000000
v 0.513232 -0.060319 2.700000
v 0.013232 -0.060319 2.700000
v 0.513232 -0.060319 -2.715000
v 0.013232 -0.060319 -2.715000
v 0.513232 -0.060319 -0.007500
v 0.013232 -0.060319 -0.007500
v 0.513232 -0.060319 2.429250
v 0.013232 -0.060319 2.429250
v 0.513232 -0.060319 -2.444250
v 0.013232 -0.060319 -2.444250
v 0.013232 0.059681 -2.715000
v 0.013232 0.059681 -2.444250
v 0.013232 0.059681 -0.007500
v 0.013232 0.059681 2.429250
v 0.013232 0.059681 -3.000000
v 0.013232 0.059681 2.700000
v 0.013232 -0.060319 3.000000
vt 0.312500 0.726219
vt 0.375000 0.726219
vt 0.375000 0.726219
vt 0.312500 0.726219
vt 0.312500 0.523156
vt 0.375000 0.523156
vt 0.375000 0.523156
vt 0.312500 0.523156
vt 0.187500 0.523156
vt 0.250000 0.523156
vt 0.250000 0.523156
vt 0.187500 0.523156
vt 0.375000 0.226844
vt 0.375000 0.238125
vt 0.375000 0.238125
vt 0.375000 0.226844
vt 0.375000 0.737500
vt 0.312500 0.737500
vt 0.312500 0.511875
vt 0.375000 0.511875
vt 0.375000 0.523156
vt 0.312500 0.523156
vt 0.125000 0.523156
vt 0.125000 0.523156
vt 0.187500 0.523156
vt 0.312500 0.511875
vt 0.375000 0.511875
vt 0.375000 0.012500
vt 0.375000 0.023781
vt 0.375000 0.023781
vt 0.375000 0.012500
vt 0.375000 0.737500
vt 0.187500 0.737500
vt 0.125000 0.737500
vt 0.125000 0.737500
vt 0.187500 0.737500
vt 0.312500 0.737500
vt 0.250000 0.737500
vt 0.250000 0.737500
vt 0.187500 0.511875
vt 0.250000 0.511875
vt 0.250000 0.511875
vt 0.187500 0.511875
vt 0.250000 0.523156
vt 0.187500 0.726219
vt 0.250000 0.726219
vt 0.375000 0.726219
vt 0.375000 0.737500
vt 0.250000 0.511875
vt 0.312500 0.511875
vt 0.250000 0.726219
vt 0.187500 0.726219
vt 0.187500 0.726219
vt 0.250000 0.726219
vt 0.312500 0.726219
vt 0.125000 0.726219
vt 0.125000 0.726219
vt 0.312500 0.737500
vt 0.250000 0.737500
vt 0.125000 0.523156
vt 0.375000 0.012500
vt 0.375000 0.023781
vt 0.125000 0.726219
vt 0.187500 0.511875
vt 0.250000 0.511875
vt 0.125000 0.511875
vt 0.125000 0.511875
vt 0.125000 0.511875
vt 0.250000 0.737500
vt 0.187500 0.737500
vt 0.125000 0.737500
vt 0.375000 0.226844
vt 0.375000 0.238125
vt 0.375000 0.511875
vt 0.250000 0.523156
vt 0.250000 0.726219
vt 0.625000 0.238125
vt 0.625000 0.250000
vt 0.375000 0.250000
vt 0.375000 0.937500
vt 0.625000 0.937500
vt 0.625000 1.000000
vt 0.375000 1.000000
vt 0.812500 0.737500
vt 0.875000 0.737500
vt 0.875000 0.750000
vt 0.812500 0.750000
vt 0.812500 0.726219
vt 0.875000 0.726219
vt 0.375000 0.000000
vt 0.625000 0.000000
vt 0.625000 0.012500
vt 0.812500 0.500000
vt 0.875000 0.500000
vt 0.875000 0.511875
vt 0.812500 0.511875
vt 0.625000 0.226844
vt 0.625000 0.023781
vt 0.625000 0.125312
vt 0.375000 0.125312
vt 0.812500 0.523156
vt 0.875000 0.523156
vt 0.875000 0.624687
vt 0.812500 0.624687
vt 0.187500 0.624687
vt 0.250000 0.624687
vt 0.187500 0.500000
vt 0.250000 0.500000
vt 0.250000 0.750000
vt 0.187500 0.750000
vt 0.375000 0.312500
vt 0.625000 0.312500
vt 0.625000 0.375000
vt 0.375000 0.375000
vt 0.125000 0.750000
vt 0.125000 0.500000
vt 0.125000 0.624687
vt 0.750000 0.511875
vt 0.750000 0.523156
vt 0.750000 0.624687
vt 0.750000 0.726219
vt 0.750000 0.500000
vt 0.750000 0.737500
vt 0.750000 0.750000
vt 0.375000 0.875000
vt 0.625000 0.875000
vt 0.375000 0.437500
vt 0.625000 0.437500
vt 0.625000 0.500000
vt 0.375000 0.500000
vt 0.625000 0.737500
vt 0.625000 0.750000
vt 0.375000 0.750000
vt 0.312500 0.750000
vt 0.625000 0.726219
vt 0.625000 0.511875
vt 0.312500 0.500000
vt 0.625000 0.523156
vt 0.625000 0.624687
vt 0.375000 0.624687
vt 0.312500 0.624687
vt 0.687500 0.511875
vt 0.750000 0.511875
vt 0.750000 0.523156
vt 0.687500 0.523156
vt 0.687500 0.624687
vt 0.750000 0.624687
vt 0.750000 0.726219
vt 0.687500 0.726219
vt 0.687500 0.500000
vt 0.750000 0.500000
vt 0.750000 0.737500
vt 0.687500 0.737500
vt 0.750000 0.750000
vt 0.687500 0.750000
vt 0.375000 0.812500
vt 0.625000 0.812500
vt 0.625000 0.875000
vt 0.375000 0.875000
vt 0.250000 0.624687
vt 0.250000 0.500000
vt 0.250000 0.750000
vt 0.375000 0.375000
vt 0.625000 0.375000
vn -0.0290 -0.2486 -0.9682
vn 0.0000 0.0000 -1.0000
vn 0.0000 0.9868 -0.1618
vn -1.0000 0.0000 0.0000
vn -0.0295 -0.9996 0.0000
vn 0.0152 -0.2614 0.9651
vn 0.0152 0.2614 -0.9651
vn 1.0000 0.0000 0.0000
vn -0.0290 0.2486 0.9682
vn -0.0095 0.2579 0.9661
vn 0.0386 0.2502 -0.9674
vn 0.0386 -0.2502 0.9674
vn 0.8043 -0.5943 0.0000
vn -0.0241 -0.9997 0.0000
vn 0.0000 0.0000 1.0000
vn 0.0000 -0.9868 0.1618
vn -0.0095 -0.2579 -0.9661
vn 0.0280 -0.9996 0.0000
vn 0.0290 -0.2486 -0.9682
vn 0.0295 -0.9996 0.0000
vn -0.0152 0.2614 -0.9651
vn 0.0095 0.2579 0.9661
vn -0.0386 -0.2502 0.9674
vn -0.0152 -0.2614 0.9651
vn 0.0290 0.2486 0.9682
vn -0.0386 0.2502 -0.9674
vn -0.8043 -0.5943 0.0000
vn 0.0095 -0.2579 -0.9661
vn 0.0000 1.0000 0.0000
vn 0.0000 -1.0000 0.0000
usemtl None
s off
f 35/1/1 6/2/1 15/3/1 39/4/1
f 36/5/2 7/6/2 94/7/2 116/8/2
f 28/9/3 20/10/3 78/11/3 61/12/3
f 8/13/4 4/14/4 14/15/4 16/16/4
f 39/4/5 15/3/5 11/17/5 37/18/5
f 38/19/5 13/20/5 12/21/5 40/22/5
f 28/9/6 8/23/6 16/24/6 32/25/6
f 34/26/7 3/27/7 13/20/7 38/19/7
f 1/28/4 5/29/4 9/30/4 10/31/4
f 3/27/8 7/6/8 12/21/8 13/20/8
f 6/2/8 2/32/8 11/17/8 15/3/8
f 25/33/9 1/34/9 10/35/9 29/36/9
f 33/37/10 17/38/10 21/39/10 37/18/10
f 26/40/11 18/41/11 22/42/11 30/43/11
f 36/5/12 20/10/12 24/44/12 40/22/12
f 30/43/13 22/42/13 24/44/13 32/25/13
f 31/45/13 23/46/13 21/39/13 29/36/13
f 2/32/14 6/2/14 99/47/14 91/48/14
f 34/26/15 18/41/15 111/49/15 110/50/15
f 19/51/16 27/52/16 60/53/16 77/54/16
f 6/2/15 35/1/15 114/55/15 99/47/15
f 27/52/17 19/51/17 23/46/17 31/45/17
f 27/52/16 5/56/16 49/57/16 60/53/16
f 17/38/2 33/37/2 108/58/2 109/59/2
f 8/23/3 28/9/3 61/12/3 55/60/3
f 5/29/18 1/28/18 41/61/18 49/62/18
f 5/56/19 27/52/19 31/45/19 9/63/19
f 18/41/16 26/40/16 54/64/16 80/65/16
f 9/63/20 31/45/20 29/36/20 10/35/20
f 14/66/20 30/43/20 32/25/20 16/24/20
f 4/67/21 26/40/21 30/43/21 14/66/21
f 17/38/22 25/33/22 29/36/22 21/39/22
f 20/10/23 28/9/23 32/25/23 24/44/23
f 26/40/16 4/67/16 53/68/16 54/64/16
f 25/33/3 17/38/3 82/69/3 51/70/3
f 1/34/3 25/33/3 51/70/3 41/71/3
f 4/14/18 8/13/18 55/72/18 53/73/18
f 7/6/14 3/27/14 86/74/14 94/7/14
f 3/27/15 34/26/15 110/50/15 86/74/15
f 33/37/2 2/32/2 91/48/2 108/58/2
f 7/6/24 36/5/24 40/22/24 12/21/24
f 2/32/25 33/37/25 37/18/25 11/17/25
f 18/41/26 34/26/26 38/19/26 22/42/26
f 22/42/27 38/19/27 40/22/27 24/44/27
f 23/46/27 39/4/27 37/18/27 21/39/27
f 20/10/2 36/5/2 116/8/2 117/75/2
f 19/51/28 35/1/28 39/4/28 23/46/28
f 35/1/15 19/51/15 115/76/15 114/55/15
f 53/73/4 44/77/4 45/78/4 46/79/4
f 64/80/15 48/81/15 43/82/15 42/83/15
f 66/84/29 50/85/29 43/86/29 48/87/29
f 72/88/29 57/89/29 50/85/29 66/84/29
f 42/90/4 43/91/4 50/92/4 41/61/4
f 62/93/29 45/94/29 44/95/29 68/96/29
f 55/72/4 52/97/4 44/77/4 53/73/4
f 49/62/4 57/98/4 58/99/4 56/100/4
f 74/101/29 52/102/29 58/103/29 70/104/29
f 41/61/4 50/92/4 57/98/4 49/62/4
f 70/104/29 58/103/29 57/89/29 72/88/29
f 68/96/29 44/95/29 52/102/29 74/101/29
f 56/100/4 58/99/4 52/97/4 55/72/4
f 59/105/30 76/106/30 77/54/30 60/53/30
f 61/12/30 78/11/30 76/106/30 59/105/30
f 47/107/30 79/108/30 80/65/30 54/64/30
f 51/70/30 82/69/30 65/109/30 64/110/30
f 47/111/2 62/112/2 63/113/2 79/114/2
f 46/79/2 45/78/2 62/112/2 47/111/2
f 41/71/30 51/70/30 64/110/30 42/115/30
f 46/116/30 47/107/30 54/64/30 53/68/30
f 55/60/30 61/12/30 59/105/30 56/117/30
f 56/117/30 59/105/30 60/53/30 49/57/30
f 69/118/29 68/96/29 74/101/29 75/119/29
f 71/120/29 70/104/29 72/88/29 73/121/29
f 75/119/29 74/101/29 70/104/29 71/120/29
f 63/122/29 62/93/29 68/96/29 69/118/29
f 73/121/29 72/88/29 66/84/29 67/123/29
f 67/123/29 66/84/29 48/87/29 81/124/29
f 65/125/15 81/126/15 48/81/15 64/80/15
f 104/127/2 83/128/2 84/129/2 85/130/2
f 91/48/8 87/131/8 88/132/8 89/133/8
f 108/58/30 91/48/30 89/133/30 90/134/30
f 99/47/8 92/135/8 87/131/8 91/48/8
f 85/130/8 84/129/8 95/136/8 86/74/8
f 104/137/30 85/130/30 86/74/30 110/50/30
f 94/7/8 97/138/8 98/139/8 100/140/8
f 116/8/30 94/7/30 100/140/30 112/141/30
f 100/140/8 98/139/8 92/135/8 99/47/8
f 112/141/30 100/140/30 99/47/30 114/55/30
f 86/74/8 95/136/8 97/138/8 94/7/8
f 96/142/29 118/143/29 119/144/29 103/145/29
f 101/146/29 120/147/29 121/148/29 102/149/29
f 103/145/29 119/144/29 120/147/29 101/146/29
f 83/150/29 122/151/29 118/143/29 96/142/29
f 102/149/29 121/148/29 123/152/29 93/153/29
f 93/153/29 123/152/29 107/154/29 106/155/29
f 90/156/15 106/157/15 107/158/15 124/159/15
f 89/133/15 88/132/15 106/157/15 90/156/15
f 87/131/29 93/153/29 106/155/29 88/132/29
f 92/135/29 102/149/29 93/153/29 87/131/29
f 84/129/29 83/150/29 96/142/29 95/136/29
f 97/138/29 103/145/29 101/146/29 98/139/29
f 98/139/29 101/146/29 102/149/29 92/135/29
f 95/136/29 96/142/29 103/145/29 97/138/29
f 113/160/30 112/141/30 114/55/30 115/76/30
f 117/75/30 116/8/30 112/141/30 113/160/30
f 105/161/30 104/137/30 110/50/30 111/49/30
f 109/59/30 108/58/30 90/134/30 124/162/30
f 105/163/2 122/164/2 83/128/2 104/127/2
f 75/119/8 71/120/8 73/121/8 67/123/8 81/124/8 65/125/8 82/69/8 78/11/8 76/106/8 77/54/8 80/65/8 79/108/8 63/113/8 69/118/8
f 119/144/4 118/143/4 122/164/4 105/161/4 111/49/4 109/59/4 124/159/4 107/154/4 123/152/4 121/148/4 120/147/4
